<?xml version="1.0" encoding="UTF-8"?>
<svg width="151px" height="118px" viewBox="0 0 151 118" version="1.1" xmlns="http://www.w3.org/2000/svg" xmlns:xlink="http://www.w3.org/1999/xlink">
    <!-- Generator: Sketch 48.2 (47327) - http://www.bohemiancoding.com/sketch -->
    <title>Group 3</title>
    <desc>Created with Sketch.</desc>
    <defs></defs>
    <g id="Page-1" stroke="none" stroke-width="1" fill="none" fill-rule="evenodd">
        <g id="SVG" transform="translate(-707.000000, -2013.000000)">
            <g id="brands-sprite">
                <g id="logo-cooper" transform="translate(0.000000, 1948.000000)">
                    <g id="Group-3" transform="translate(707.000000, 65.000000)">
                        <path d="M151,82 L151,110.621488 C151,111.633058 150.822839,112.585124 150.468518,113.477686 C150.409464,113.656198 150.350411,113.775207 150.291357,113.894215 C149.937036,114.608264 149.523661,115.26281 148.933125,115.798347 C148.755964,115.97686 148.578803,116.155372 148.401643,116.333884 C148.224482,116.512397 147.988268,116.631405 147.811107,116.809917 C146.689089,117.523967 145.330856,118 143.913571,118 L7.20453657,118 C6.20062573,118 5.25576848,117.821488 4.42901838,117.464463 C4.25185765,117.404959 4.13375049,117.345455 4.01564333,117.28595 C3.30700039,116.928926 2.65741103,116.452893 2.12592882,115.917355 C1.94876809,115.738843 1.77160735,115.560331 1.59444662,115.322314 C1.41728588,115.143802 1.24012515,114.905785 1.12201799,114.667769 C0.413375049,113.53719 0,112.168595 0,110.740496 L0,82.1190083 C0,83.5471074 0.413375049,84.9157025 1.12201799,86.046281 C1.24012515,86.2842975 1.41728588,86.4628099 1.59444662,86.7008264 C1.77160735,86.8793388 1.94876809,87.1173554 2.12592882,87.2958678 C2.65741103,87.831405 3.30700039,88.307438 4.01564333,88.6644628 C4.13375049,88.7239669 4.25185765,88.7834711 4.42901838,88.8429752 C5.25576848,89.2 6.20062573,89.4380165 7.20453657,89.4380165 L143.795463,89.4380165 C145.212749,89.4380165 146.570982,89.0214876 147.693,88.2479339 C147.929214,88.1289256 148.106375,87.9504132 148.283535,87.7719008 C148.460696,87.6528926 148.69691,87.414876 148.815018,87.2363636 C149.3465,86.7008264 149.818928,86.046281 150.17325,85.3322314 C150.232303,85.2132231 150.291357,85.0942149 150.350411,84.9157025 C150.822839,83.9636364 151,83.0115702 151,82" id="Shape" fill="#FFC20E" fill-rule="nonzero"></path>
                        <path d="M151,7.31658956 C151,6.3053536 150.822839,5.35360212 150.468518,4.4613351 C150.409464,4.28288169 150.350411,4.16391276 150.291357,4.04494382 C149.937036,3.3311302 149.523661,2.67680106 148.933125,2.14144085 C148.755964,1.96298744 148.578803,1.78453404 148.401643,1.60608063 C148.224482,1.42762723 147.988268,1.30865829 147.811107,1.13020489 C146.689089,0.416391276 145.330856,0 143.913571,0 L7.20453657,0 C6.20062573,0 5.25576848,0.237937872 4.42901838,0.594844679 C4.25185765,0.654329147 4.13375049,0.713813615 4.01564333,0.773298083 C3.30700039,1.13020489 2.65741103,1.60608063 2.12592882,2.08195638 C1.94876809,2.26040978 1.77160735,2.43886319 1.59444662,2.67680106 C1.41728588,2.85525446 1.24012515,3.09319233 1.12201799,3.27164574 C0.413375049,4.4613351 0,5.76999339 0,7.19762062 L0,82.6834104 C0,84.1110377 0.413375049,85.4791804 1.12201799,86.6093853 C1.24012515,86.8473232 1.41728588,87.0257766 1.59444662,87.2637145 C1.77160735,87.4421679 1.94876809,87.6801058 2.12592882,87.8585592 C2.65741103,88.3939194 3.30700039,88.8697951 4.01564333,89.2267019 C4.13375049,89.2861864 4.25185765,89.3456709 4.42901838,89.4051553 C5.25576848,89.7620621 6.20062573,90 7.20453657,90 L143.795463,90 C145.212749,90 146.570982,89.5836087 147.693,88.8103106 C147.929214,88.6913417 148.106375,88.5128883 148.283535,88.3344349 C148.460696,88.215466 148.69691,87.9775281 148.815018,87.7990747 C149.3465,87.2637145 149.818928,86.6093853 150.17325,85.8955717 C150.232303,85.7766028 150.291357,85.6576338 150.350411,85.4791804 C150.704732,84.6463979 150.881893,83.6946464 150.881893,82.6834104 L150.881893,7.31658956 L151,7.31658956 Z" id="Shape" fill="#00673D" fill-rule="nonzero"></path>
                        <path d="M135.034707,52.5294118 L127.836443,38.8235294 L127.77744,38.8235294 L127.77744,52.5882353 L120.756182,52.5882353 L120.756182,22.8823529 C122.939262,21.8235294 126.12538,21.0588235 129.901518,21.0588235 C138.10282,21.0588235 141.878959,24.8823529 141.878959,30.8235294 C141.878959,34.8823529 138.869848,38.0588235 134.857701,38.6470588 L134.857701,38.7647059 L143,52.5294118 L135.034707,52.5294118 Z M37.2681128,53 C28.8308026,53 25.4086768,45.8235294 25.4086768,37.0588235 C25.4086768,28.2352941 28.8308026,21 37.2681128,21 C45.7644252,21 49.186551,28.2352941 49.186551,37.0588235 C49.186551,45.8235294 45.7644252,53 37.2681128,53 Z M63.9960954,53 C55.6177874,53 52.1366594,45.8235294 52.1366594,37.0588235 C52.1366594,28.2352941 55.5587852,21 63.9960954,21 C72.4924078,21 75.9145336,28.2352941 75.9145336,37.0588235 C75.9145336,45.8235294 72.4924078,53 63.9960954,53 Z M86.7119306,40.9411765 L85.7678959,40.8235294 L85.7678959,52.5294118 L78.7466377,52.5294118 L78.7466377,22.8235294 C80.929718,21.7647059 84.1158351,21 88.0099783,21 C96.4472885,21 99.6334056,25.4117647 99.6334056,30.9411765 C99.5744035,36.8235294 95.7982646,41.8235294 86.7119306,40.9411765 Z M129.842516,25.2352941 C128.957484,25.2352941 128.249458,25.4117647 127.718438,25.5882353 L127.718438,37 C127.954447,37.0588235 128.662473,37.1764706 129.252495,37.1764706 C133.028633,37.1764706 134.739696,34.8823529 134.739696,31.1176471 C134.798698,27.1764706 133.677657,25.2352941 129.842516,25.2352941 Z M18.9774403,53 C10.7761388,53 7,45.4117647 7,37.0588235 C7,28.7647059 10.7761388,21 18.9774403,21 C21.9275488,21 24.0516269,21.7058824 25.5856833,22.8235294 L24.1106291,27.2352941 C23.2845987,26.6470588 22.2225597,26.2941176 20.5704989,26.2941176 C15.8503254,26.2941176 14.3752711,31.6470588 14.3752711,36.9411765 C14.3752711,42.2352941 16.0863341,47.3529412 20.5114967,47.3529412 C22.1635575,47.3529412 23.04859,46.9411765 23.9926247,46.4117647 L25.6446855,51.0588235 C24.0516269,52.3529412 21.9275488,53 18.9774403,53 Z M37.2681128,25.9411765 C33.4329718,25.9411765 32.7249458,31.5294118 32.7249458,36.8235294 C32.7249458,42.1176471 33.4329718,47.6470588 37.2681128,47.6470588 C41.162256,47.6470588 41.870282,42.1176471 41.870282,36.8235294 C41.870282,31.4705882 41.1032538,25.9411765 37.2681128,25.9411765 Z M63.9960954,25.9411765 C60.2199566,25.9411765 59.4529284,31.5294118 59.4529284,36.8235294 C59.4529284,42.1176471 60.1609544,47.6470588 63.9960954,47.6470588 C67.9492408,47.6470588 68.6572668,42.1176471 68.6572668,36.8235294 C68.6572668,31.4705882 67.7722343,25.9411765 63.9960954,25.9411765 Z M87.891974,25.2352941 C86.8889371,25.2352941 86.1219089,25.4117647 85.7088937,25.5882353 L85.7088937,36.6470588 L86.6529284,36.7058824 C91.1370933,36.8823529 92.789154,34.9411765 92.789154,30.8823529 C92.8481562,27.0588235 91.4911063,25.2352941 87.891974,25.2352941 Z M102.46551,52.5294118 L102.46551,21.4705882 L117.98308,21.4705882 L117.98308,26.4117647 L109.663774,26.4117647 L109.663774,34.3529412 L116.980043,34.3529412 L116.980043,39.1176471 L109.663774,39.1176471 L109.663774,47.6470588 L117.98308,47.6470588 L117.98308,52.5882353 L102.46551,52.5882353 L102.46551,52.5294118 Z" id="Shape" fill="#FFC20E"></path>
                        <path d="M114.158848,58.1805811 L112.244337,64.3876082 L112.012275,65.1488474 L112.012275,65.2074043 L112.012275,65.2659611 C112.070291,65.2659611 112.070291,65.2659611 112.128306,65.2659611 C112.186322,65.2074043 112.302353,65.1488474 112.418384,65.0902905 L112.418384,65.0317337 C112.476399,65.0317337 112.534415,64.91462 112.650445,64.7975062 C112.766476,64.6803925 112.940523,64.4461651 113.114569,64.2119376 C113.346631,63.8020396 114.100833,64.2704945 113.868771,64.6218357 C113.868771,64.6218357 113.868771,64.6218357 113.868771,64.6218357 C113.636709,65.0317337 113.404647,65.3830748 113.172585,65.734416 C112.882507,66.0272003 112.650445,66.3199846 112.360368,66.4956552 C112.070291,66.7298826 111.780213,66.8469963 111.490136,66.9641101 C111.142043,67.0226669 110.851965,67.0812238 110.503872,67.0812238 C110.27181,67.0812238 110.097764,67.0812238 109.923717,67.0226669 C109.749671,66.9641101 109.575625,66.9055532 109.459594,66.7884395 C109.343563,66.6713258 109.227532,66.554212 109.169516,66.3785415 C109.111501,66.2614277 109.053485,66.0857572 109.053485,65.9100866 C109.053485,65.7929729 109.053485,65.5587454 109.111501,65.324518 L109.111501,65.2659611 C109.053485,65.3830748 108.937454,65.4416317 108.879439,65.5587454 C108.47333,66.0272003 108.125237,66.3785415 107.777144,66.6713258 C107.545082,66.8469963 107.31302,66.9641101 107.080958,67.0226669 C106.848897,67.0812238 106.558819,67.1397806 106.326757,67.1397806 C105.978664,67.1397806 105.688587,67.0812238 105.456525,66.9641101 C105.166447,66.8469963 104.992401,66.6127689 104.818354,66.3199846 C104.644308,66.0857572 104.586292,65.7929729 104.470261,65.5001886 C104.412246,65.2074043 104.35423,64.91462 104.35423,64.5632788 C104.35423,63.6849259 104.644308,62.6309024 105.224463,61.4597652 C105.51454,60.8741966 105.862633,60.3471849 106.210726,59.87873 C106.616835,59.4102751 107.022943,59.0003771 107.487067,58.649036 C107.893175,58.3562517 108.241268,58.1220242 108.589361,58.0049105 C108.99547,57.8292399 109.343563,57.7706831 109.691656,57.7706831 C109.865702,57.7706831 110.097764,57.7706831 110.27181,57.8292399 C110.445857,57.8877968 110.619903,57.9463536 110.735934,58.1220242 C110.851965,58.2391379 110.967996,58.4148085 111.084027,58.5904791 L111.200058,58.1805811 C111.200058,58.1220242 111.316089,58.0049105 111.43212,58.0049105 L113.75274,57.8877968 C113.868771,57.8877968 113.984802,58.0049105 113.984802,58.1220242 L113.984802,58.1805811 L114.158848,58.1805811 Z M132.607774,53.5545891 C137.132982,52.4420088 145.023089,53.6717029 140.613911,59.9958437 C137.365044,64.6218357 127.850504,69.4234982 118.51001,72 C130.635247,70.0090668 142.934531,64.8560631 147.053631,59.0003771 C150.070436,54.6671695 145.313166,51.7393265 140.671927,51.3879853 C135.392517,50.9780873 131.50548,52.9104637 130.229139,53.6717029 L130.113108,53.6717029 C126.980271,50.0997344 122.513079,50.1582913 119.380242,53.5545891 C124.42759,51.2123148 127.792488,53.0861343 129.474937,54.432942 L128.372643,58.1805811 C128.314628,58.1220242 128.314628,58.1220242 128.256612,58.1220242 C128.140581,58.0634674 128.02455,57.9463536 127.908519,57.8877968 C127.792488,57.8292399 127.676457,57.7706831 127.502411,57.7706831 C127.38638,57.7706831 127.212333,57.7121262 127.096302,57.7121262 C126.806225,57.7121262 126.574163,57.7706831 126.284086,57.8292399 C125.994008,57.8877968 125.761946,58.0049105 125.471869,58.1220242 C125.181791,58.2391379 124.949729,58.4733654 124.659652,58.7075928 C124.369574,58.9418203 124.079497,59.1760477 123.789419,59.468832 L123.789419,59.5273889 C123.499342,59.8201732 123.26728,60.1715143 122.977203,60.5814123 C122.745141,60.9913103 122.455063,61.4012084 122.281017,61.8696632 C122.048955,62.3381181 121.874908,62.806573 121.758877,63.2750279 C121.642846,63.7434828 121.584831,64.2119376 121.584831,64.7389494 C121.584831,65.1488474 121.642846,65.4416317 121.700862,65.7929729 C121.758877,66.0857572 121.932924,66.3785415 122.164986,66.554212 C122.339032,66.7884395 122.571094,66.9641101 122.803156,67.0812238 C123.035218,67.1983375 123.325296,67.2568944 123.557358,67.2568944 C123.789419,67.2568944 124.079497,67.1983375 124.311559,67.1397806 C124.543621,67.0226669 124.833698,66.9055532 125.06576,66.7298826 C125.413853,66.4956552 125.703931,66.144314 126.110039,65.6173023 C126.168055,65.5001886 126.284086,65.3830748 126.342101,65.2659611 L126.342101,65.324518 C126.342101,65.5587454 126.284086,65.734416 126.284086,65.9100866 C126.284086,66.0857572 126.284086,66.2614277 126.342101,66.4370983 C126.400116,66.554212 126.516147,66.7298826 126.632178,66.8469963 C126.748209,66.9641101 126.922256,67.0226669 127.154318,67.1397806 C127.328364,67.1983375 127.502411,67.1983375 127.734473,67.1983375 C128.314628,67.1983375 128.894783,66.9641101 129.474937,66.554212 C130.055092,66.144314 130.519216,65.5587454 131.041356,64.7975062 C131.331433,64.3290514 130.519216,63.9777102 130.287154,64.3876082 C130.113108,64.6218357 129.939061,64.7975062 129.82303,64.9731768 C129.706999,65.0902905 129.590968,65.2074043 129.474937,65.324518 C129.416922,65.3830748 129.358906,65.3830748 129.300891,65.4416317 L129.242875,65.4416317 C129.242875,65.3830748 129.242875,65.2659611 129.300891,65.0902905 C129.358906,64.91462 129.416922,64.6218357 129.532953,64.3290514 L132.723805,53.9059303 L132.723805,53.8473734 L132.723805,53.5545891 L132.607774,53.5545891 Z M127.792488,59.5859457 C127.792488,59.4102751 127.792488,59.2931614 127.734473,59.1174908 C127.734473,59.058934 127.676457,58.9418203 127.618442,58.8832634 C127.560426,58.8247065 127.502411,58.8247065 127.444395,58.7661497 C127.38638,58.7661497 127.328364,58.7075928 127.270349,58.7075928 C127.212333,58.7075928 127.096302,58.7661497 127.038287,58.7661497 C126.980271,58.8247065 126.86424,58.8832634 126.748209,58.9418203 C126.516147,59.1174908 126.284086,59.4102751 126.052024,59.7616163 C125.819962,60.1715143 125.5879,60.6399692 125.355838,61.2255378 C125.123776,61.8111064 124.891714,62.3381181 124.775683,62.8651299 C124.659652,63.3335847 124.601636,63.8020396 124.601636,64.1533808 C124.601636,64.2704945 124.601636,64.3876082 124.601636,64.5047219 C124.601636,64.5632788 124.659652,64.6218357 124.659652,64.6803925 C124.717667,64.6803925 124.717667,64.7389494 124.775683,64.7389494 C124.775683,64.7389494 124.833698,64.7389494 124.833698,64.7389494 C124.891714,64.7389494 125.007745,64.7389494 125.06576,64.6803925 C125.123776,64.6218357 125.239807,64.5632788 125.355838,64.5047219 C125.645915,64.2704945 125.877977,63.9777102 126.168055,63.5678122 C126.400116,63.1579142 126.690194,62.6894593 126.980271,62.1038907 C127.212333,61.5183221 127.444395,61.0498672 127.560426,60.5814123 C127.734473,60.288628 127.792488,59.87873 127.792488,59.5859457 Z M115.899313,60.288628 C115.899313,60.1715143 115.957328,60.1129574 115.957328,59.9958437 C115.957328,59.87873 116.015344,59.8201732 116.015344,59.7616163 C116.015344,59.6445026 116.015344,59.5273889 116.015344,59.4102751 C116.015344,59.4102751 116.015344,59.3517183 116.015344,59.2931614 C116.015344,59.2346046 115.957328,59.2346046 115.899313,59.2346046 C115.493204,59.2346046 115.029081,60.0544006 114.739003,60.1129574 C114.622972,60.1129574 114.448926,60.1129574 114.39091,59.9958437 C114.274879,59.87873 114.332895,59.7616163 114.332895,59.7030594 C114.332895,59.5273889 114.622972,59.1174908 115.261143,58.5319222 C115.841297,57.9463536 116.479468,57.6535693 117.175654,57.6535693 C117.639778,57.6535693 118.045886,57.7706831 118.277948,58.0634674 C118.51001,58.2976948 118.684056,58.649036 118.684056,59.058934 L118.684056,59.1174908 C118.684056,59.3517183 118.684056,59.468832 118.626041,59.7030594 L118.335963,60.7570829 C118.51001,60.4642986 118.684056,60.1715143 118.800087,59.9372869 C119.264211,59.1174908 119.67032,58.5904791 120.018413,58.2391379 L120.018413,58.1805811 C120.192459,58.0049105 120.424521,57.8877968 120.598568,57.7706831 C120.83063,57.6535693 121.062691,57.6535693 121.294753,57.6535693 C121.642846,57.6535693 121.932924,57.7706831 122.164986,58.0049105 C122.281017,58.1220242 122.339032,58.2391379 122.397048,58.4148085 C122.455063,58.5319222 122.455063,58.7661497 122.455063,58.9418203 C122.455063,59.2346046 122.397048,59.5273889 122.339032,59.8201732 C122.281017,60.1129574 122.10697,60.4057417 121.932924,60.5814123 C121.816893,60.698526 121.700862,60.8741966 121.526815,60.9327535 C121.410784,60.9913103 121.236738,61.0498672 121.062691,61.0498672 C120.888645,61.0498672 120.714599,61.0498672 120.598568,60.9327535 C120.482537,60.8741966 120.366506,60.7570829 120.250475,60.5814123 C120.192459,60.4642986 120.134444,60.4057417 120.076428,60.288628 C120.076428,60.288628 120.018413,60.2300712 120.018413,60.2300712 L120.018413,60.1715143 C120.018413,60.2300712 120.018413,60.2300712 119.960397,60.2300712 C119.902382,60.2300712 119.844366,60.288628 119.786351,60.4057417 C119.728335,60.4642986 119.612304,60.5814123 119.496273,60.7570829 C119.380242,60.8741966 119.264211,61.0498672 119.14818,61.2840946 C119.032149,61.5183221 118.858103,61.8111064 118.684056,62.1624475 C118.51001,62.5137887 118.335963,62.806573 118.219932,63.0993573 C117.929855,63.7434828 117.755809,64.2119376 117.581762,64.8560631 C117.465731,65.324518 117.291685,65.8515297 117.117638,66.4956552 C117.117638,66.6127689 117.001607,66.6713258 116.885576,66.6713258 L114.506941,66.6713258 C114.39091,66.6713258 114.274879,66.554212 114.274879,66.4370983 L114.274879,66.3785415 L115.899313,60.288628 Z M103.71606,64.7389494 C103.367967,65.1488474 103.07789,65.4416317 102.729797,65.734416 C102.381704,66.0272003 102.091626,66.2614277 101.743533,66.4370983 C101.27941,66.6713258 100.873301,66.8469963 100.409177,66.9641101 C99.9450533,67.0812238 99.5389449,67.1397806 99.0748209,67.1397806 C98.7847435,67.1397806 98.494666,67.1397806 98.2045886,67.0226669 C97.9145112,66.9641101 97.6824492,66.9055532 97.3923717,66.7298826 C97.1603098,66.6127689 96.9282478,66.4370983 96.7542014,66.2614277 C96.4061084,65.9100866 96.1740465,65.3830748 96.0580155,64.91462 C96,64.6803925 96,64.4461651 96,64.2119376 C96,63.6849259 96.0580155,63.1579142 96.232062,62.6309024 C96.3480929,62.1038907 96.6381704,61.5768789 96.9282478,61.0498672 C97.2183253,60.5228555 97.5664182,60.0544006 97.9725266,59.7030594 C98.3786351,59.2931614 98.842759,58.9418203 99.3068829,58.649036 C99.8290223,58.3562517 100.293146,58.1220242 100.815286,58.0049105 C101.337425,57.8292399 101.801549,57.7706831 102.265673,57.7706831 C102.671781,57.7706831 103.019874,57.8292399 103.309952,57.8877968 C103.600029,57.9463536 103.890107,58.1220242 104.064153,58.2976948 C104.2382,58.4733654 104.412246,58.649036 104.528277,58.8832634 C104.644308,59.1174908 104.702323,59.3517183 104.702323,59.5859457 C104.702323,59.8201732 104.644308,60.0544006 104.586292,60.2300712 C104.528277,60.4057417 104.412246,60.6399692 104.2382,60.7570829 C104.064153,60.9327535 103.890107,61.0498672 103.71606,61.1669809 C103.542014,61.2255378 103.309952,61.2840946 103.135905,61.2840946 C102.961859,61.2840946 102.787812,61.2840946 102.613766,61.2255378 C102.497735,61.1669809 102.323688,61.0498672 102.207657,60.9327535 C102.091626,60.8156398 101.975595,60.698526 101.91758,60.5228555 C101.859564,60.4057417 101.801549,60.2300712 101.801549,60.0544006 C101.801549,59.8201732 101.859564,59.6445026 101.975595,59.468832 C102.091626,59.2931614 102.265673,59.1174908 102.439719,59.0003771 C102.55575,58.9418203 102.613766,58.8832634 102.671781,58.8247065 C102.671781,58.8247065 102.729797,58.7661497 102.729797,58.7661497 C102.729797,58.7661497 102.729797,58.7661497 102.671781,58.7661497 L102.671781,58.7075928 C102.613766,58.7075928 102.613766,58.649036 102.55575,58.649036 C102.497735,58.5904791 102.439719,58.5904791 102.323688,58.5904791 C102.091626,58.5904791 101.801549,58.649036 101.627502,58.7075928 C101.395441,58.7661497 101.163379,58.9418203 100.931317,59.1174908 C100.641239,59.4102751 100.351162,59.7030594 100.1191,60.0544006 C99.8870378,60.4057417 99.6549758,60.7570829 99.5389449,61.1669809 C99.3648984,61.5768789 99.2488674,61.986777 99.1328364,62.396675 C99.0748209,62.806573 99.0168055,63.1579142 99.0168055,63.5092553 C99.0168055,63.8020396 99.0168055,64.0362671 99.1328364,64.2704945 C99.1908519,64.4461651 99.3068829,64.6803925 99.4809294,64.8560631 C99.6549758,64.9731768 99.8290223,65.0902905 100.003069,65.2074043 C100.177115,65.2659611 100.409177,65.324518 100.583224,65.324518 C100.75727,65.324518 100.989332,65.324518 101.163379,65.2659611 C101.395441,65.2074043 101.627502,65.1488474 101.801549,65.0317337 C102.033611,64.9731768 102.265673,64.7975062 102.497735,64.6803925 C102.729797,64.5632788 102.903843,64.3290514 103.135905,64.1533808 C103.483998,63.8605965 104.006138,64.3876082 103.71606,64.7389494 Z M110.503872,59.87873 C110.503872,59.6445026 110.503872,59.4102751 110.445857,59.2931614 C110.445857,59.1174908 110.387841,59.0003771 110.329826,58.9418203 C110.27181,58.9418203 110.27181,58.8832634 110.213795,58.8832634 C110.155779,58.8832634 110.097764,58.8832634 110.039748,58.8832634 C109.981733,58.8832634 109.865702,58.8832634 109.807687,58.9418203 C109.749671,58.9418203 109.63364,59.0003771 109.517609,59.1174908 C109.343563,59.2931614 109.111501,59.5859457 108.879439,59.9372869 C108.647377,60.288628 108.415315,60.8156398 108.183253,61.3426515 C107.951191,61.9282201 107.719129,62.4552318 107.603098,62.9822436 C107.487067,63.5092553 107.429051,63.9191533 107.429051,64.3290514 C107.429051,64.4461651 107.429051,64.6218357 107.429051,64.6803925 C107.429051,64.7389494 107.487067,64.7975062 107.487067,64.8560631 C107.545082,64.91462 107.545082,64.91462 107.603098,64.9731768 L107.661113,64.9731768 C107.777144,64.9731768 107.893175,64.9731768 108.009206,64.91462 C108.125237,64.8560631 108.299284,64.7389494 108.415315,64.6218357 C108.647377,64.3876082 108.821423,64.1533808 108.99547,63.8605965 C109.169516,63.5678122 109.343563,63.3335847 109.517609,62.9822436 C109.807687,62.396675 110.039748,61.8696632 110.155779,61.3426515 C110.445857,60.7570829 110.503872,60.288628 110.503872,59.87873 Z" id="Shape" fill="#FFFFFF"></path>
                        <path d="M14.8099174,105.90184 C14.8099174,104.576687 15.8081775,103.969325 17.8634189,103.969325 C18.3331883,103.969325 18.8029578,104.02454 19.2727273,104.079755 L19.2727273,103.582822 C19.2727273,102.97546 18.8029578,102.699387 17.9221401,102.699387 C17.1587647,102.699387 16.3366681,102.809816 15.3971292,103.030675 L15.3971292,101.705521 C16.3366681,101.484663 17.1587647,101.374233 17.9221401,101.374233 C19.9773815,101.374233 21.0343628,102.092025 21.0343628,103.527607 L21.0343628,107.944785 L20.0361027,107.944785 L19.3901696,107.337423 C18.8029578,107.723926 18.0983036,107.944785 17.3936494,107.944785 C15.6320139,107.944785 14.8099174,107.226994 14.8099174,105.90184 Z M17.8046977,105.07362 C16.9826011,105.07362 16.5128317,105.349693 16.5128317,105.90184 C16.5128317,106.509202 16.8651588,106.785276 17.569813,106.785276 C18.1570248,106.785276 18.6855154,106.619632 19.2140061,106.288344 L19.2140061,105.239264 C18.8029578,105.07362 18.3331883,105.07362 17.8046977,105.07362 Z M22.6785559,107.944785 L22.6785559,101.374233 L24.0291431,101.374233 L24.2640278,102.202454 C24.8512397,101.650307 25.4971727,101.374233 26.2018269,101.374233 L26.2018269,102.699387 C25.5558939,102.699387 24.968682,102.97546 24.4401914,103.472393 L24.4401914,107.944785 L22.6785559,107.944785 Z M26.8477599,105.90184 C26.8477599,104.576687 27.84602,103.969325 29.8425402,103.969325 C30.3123097,103.969325 30.7820792,104.02454 31.2518486,104.079755 L31.2518486,103.582822 C31.2518486,102.97546 30.7820792,102.699387 29.9012614,102.699387 C29.137886,102.699387 28.3157895,102.809816 27.3762505,103.030675 L27.3762505,101.705521 C28.3157895,101.484663 29.137886,101.374233 29.9012614,101.374233 C31.9565028,101.374233 33.0134841,102.092025 33.0134841,103.527607 L33.0134841,107.944785 L32.015224,107.944785 L31.369291,107.337423 C30.7820792,107.723926 30.077425,107.944785 29.3727708,107.944785 C27.6698565,107.944785 26.8477599,107.226994 26.8477599,105.90184 Z M29.8425402,105.07362 C29.0204437,105.07362 28.5506742,105.349693 28.5506742,105.90184 C28.5506742,106.509202 28.9030013,106.785276 29.6076555,106.785276 C30.1948673,106.785276 30.723358,106.619632 31.2518486,106.288344 L31.2518486,105.239264 C30.8408003,105.07362 30.3710309,105.07362 29.8425402,105.07362 Z M43.9356242,101.374233 L43.9356242,107.944785 L42.585037,107.944785 L42.3501522,107.116564 C41.5280557,107.668712 40.7059591,107.944785 39.8251414,107.944785 C38.415833,107.944785 37.7111788,107.171779 37.7111788,105.570552 L37.7111788,101.374233 L39.4728143,101.374233 L39.4728143,105.515337 C39.4728143,106.233129 39.8251414,106.619632 40.4710744,106.619632 C41.0582862,106.619632 41.645498,106.398773 42.2327099,105.957055 L42.2327099,101.374233 L43.9356242,101.374233 Z M45.5798173,107.944785 L45.5798173,101.374233 L46.9304045,101.374233 L47.1065681,102.312883 C47.7525011,101.705521 48.4571553,101.374233 49.337973,101.374233 C50.2187908,101.374233 50.8060026,101.650307 51.1583297,102.257669 C51.8629839,101.650307 52.6263593,101.374233 53.3897347,101.374233 C54.9752066,101.374233 55.7973032,102.202454 55.7973032,103.858896 L55.7973032,107.944785 L54.0356677,107.944785 L54.0356677,103.803681 C54.0356677,103.08589 53.6833406,102.699387 52.9786864,102.699387 C52.4501957,102.699387 51.9804263,102.920245 51.4519356,103.361963 L51.4519356,107.889571 L49.6903001,107.889571 L49.6903001,103.803681 C49.6903001,103.08589 49.337973,102.699387 48.7507612,102.699387 C48.2222706,102.699387 47.7525011,102.920245 47.2827316,103.361963 L47.2827316,107.889571 L45.5798173,107.889571 L45.5798173,107.944785 Z M57.1478904,105.90184 C57.1478904,104.576687 58.1461505,103.969325 60.1426707,103.969325 C60.6124402,103.969325 61.0822097,104.02454 61.5519791,104.079755 L61.5519791,103.582822 C61.5519791,102.97546 61.0822097,102.699387 60.2013919,102.699387 C59.4380165,102.699387 58.61592,102.809816 57.676381,103.030675 L57.676381,101.705521 C58.61592,101.484663 59.4380165,101.374233 60.2013919,101.374233 C62.2566333,101.374233 63.3136146,102.092025 63.3136146,103.527607 L63.3136146,107.944785 L62.3153545,107.944785 L61.6694215,107.337423 C61.0822097,107.723926 60.3775555,107.944785 59.6729013,107.944785 C58.0287081,107.944785 57.1478904,107.226994 57.1478904,105.90184 Z M60.2013919,105.07362 C59.3792953,105.07362 58.9095259,105.349693 58.9095259,105.90184 C58.9095259,106.509202 59.261853,106.785276 59.9665072,106.785276 C60.553719,106.785276 61.0822097,106.619632 61.6107003,106.288344 L61.6107003,105.239264 C61.199652,105.07362 60.7298826,105.07362 60.2013919,105.07362 Z M67.1892127,101.374233 L69.0682906,101.374233 L70.7712049,105.957055 L72.5328404,101.374233 L74.4119182,101.374233 L71.5933014,107.944785 L69.9491083,107.944785 L67.1892127,101.374233 Z M76.9369291,100.325153 L75.1752936,100.325153 L75.1752936,99 L76.9369291,99 L76.9369291,100.325153 Z M76.9369291,107.944785 L75.1752936,107.944785 L75.1752936,101.374233 L76.9369291,101.374233 L76.9369291,107.944785 Z M84.7468465,107.558282 C83.6898652,107.834356 82.6328839,107.944785 81.6346237,107.944785 C79.4032188,107.944785 78.2875163,106.785276 78.2875163,104.521472 C78.2875163,102.423313 79.4032188,101.374233 81.5759026,101.374233 C82.045672,101.374233 82.5154415,101.484663 83.0439321,101.705521 L83.0439321,99 L84.8055676,99 L84.8055676,107.558282 L84.7468465,107.558282 Z M82.985211,103.08589 C82.6328839,102.865031 82.1631144,102.754601 81.6346237,102.754601 C80.5189213,102.754601 79.9904306,103.306748 79.9904306,104.466258 C79.9904306,105.846626 80.5776425,106.509202 81.6933449,106.509202 C82.1631144,106.509202 82.5741627,106.453988 82.985211,106.343558 L82.985211,103.08589 Z M86.0974337,105.90184 C86.0974337,104.576687 87.0956938,103.969325 89.1509352,103.969325 C89.6207047,103.969325 90.0904741,104.02454 90.5602436,104.079755 L90.5602436,103.582822 C90.5602436,102.97546 90.0904741,102.699387 89.2096564,102.699387 C88.446281,102.699387 87.6241844,102.809816 86.6846455,103.030675 L86.6846455,101.705521 C87.6241844,101.484663 88.446281,101.374233 89.2096564,101.374233 C91.2648978,101.374233 92.3218791,102.092025 92.3218791,103.527607 L92.3218791,107.944785 L91.323619,107.944785 L90.677686,107.337423 C90.0904741,107.723926 89.3858199,107.944785 88.6811657,107.944785 C86.9195302,107.944785 86.0974337,107.226994 86.0974337,105.90184 Z M89.092214,105.07362 C88.2701174,105.07362 87.800348,105.349693 87.800348,105.90184 C87.800348,106.509202 88.1526751,106.785276 88.8573293,106.785276 C89.4445411,106.785276 89.9730318,106.619632 90.5015224,106.288344 L90.5015224,105.239264 C90.0904741,105.07362 89.6207047,105.07362 89.092214,105.07362 Z M96.9021314,107.944785 L96.9021314,101.374233 L98.2527186,101.374233 L98.4876033,102.312883 C99.1335363,101.705521 99.8381905,101.374233 100.719008,101.374233 C101.599826,101.374233 102.187038,101.650307 102.539365,102.257669 C103.244019,101.650307 104.007395,101.374233 104.77077,101.374233 C106.356242,101.374233 107.178338,102.202454 107.178338,103.858896 L107.178338,107.944785 L105.416703,107.944785 L105.416703,103.803681 C105.416703,103.08589 105.064376,102.699387 104.359722,102.699387 C103.831231,102.699387 103.361462,102.920245 102.832971,103.361963 L102.832971,107.889571 L101.071335,107.889571 L101.071335,103.803681 C101.071335,103.08589 100.719008,102.699387 100.131796,102.699387 C99.6033058,102.699387 99.1335363,102.920245 98.6637669,103.361963 L98.6637669,107.889571 L96.9021314,107.889571 L96.9021314,107.944785 Z M111.758591,101.374233 C113.872553,101.374233 114.929535,102.368098 114.929535,104.411043 C114.929535,104.687117 114.929535,104.96319 114.870813,105.239264 L110.23184,105.239264 C110.23184,106.177914 110.936494,106.619632 112.404524,106.619632 C113.109178,106.619632 113.813832,106.564417 114.518486,106.453988 L114.518486,107.779141 C113.931274,107.889571 113.167899,107.944785 112.287081,107.944785 C109.76207,107.944785 108.528926,106.840491 108.528926,104.576687 C108.470204,102.423313 109.585907,101.374233 111.758591,101.374233 Z M110.23184,104.079755 L113.22662,104.079755 L113.22662,104.02454 C113.22662,103.141104 112.756851,102.644172 111.758591,102.644172 C110.819052,102.699387 110.349282,103.141104 110.23184,104.079755 Z M118.041757,107.944785 L116.280122,107.944785 L116.280122,99.0552147 L118.041757,99.0552147 L118.041757,107.944785 Z M119.68595,107.944785 L119.68595,99.0552147 L121.447586,99.0552147 L121.447586,102.257669 C121.976077,101.705521 122.680731,101.429448 123.561548,101.429448 C125.205742,101.429448 126.027838,102.257669 126.027838,103.858896 L126.027838,108 L124.266203,108 L124.266203,103.858896 C124.266203,103.141104 123.855154,102.754601 123.091779,102.754601 C122.504567,102.754601 121.976077,102.97546 121.447586,103.417178 L121.447586,108 L119.68595,108 L119.68595,107.944785 Z M127.319704,104.631902 C127.319704,102.423313 128.494128,101.319018 130.784254,101.319018 C133.07438,101.319018 134.248804,102.423313 134.248804,104.631902 C134.248804,106.840491 133.07438,107.944785 130.784254,107.944785 C128.494128,107.944785 127.319704,106.840491 127.319704,104.631902 Z M130.784254,106.674847 C131.899957,106.674847 132.487168,106.01227 132.487168,104.631902 C132.487168,103.306748 131.899957,102.644172 130.784254,102.644172 C129.668552,102.644172 129.08134,103.306748 129.08134,104.631902 C129.08134,106.01227 129.668552,106.674847 130.784254,106.674847 Z M135.54067,107.944785 L135.54067,101.374233 L136.891257,101.374233 L137.126142,102.202454 C137.713354,101.650307 138.359287,101.374233 139.063941,101.374233 L139.063941,102.699387 C138.418008,102.699387 137.830796,102.97546 137.302305,103.472393 L137.302305,107.944785 L135.54067,107.944785 Z M142,105.625767 L140.238365,105.625767 L140.238365,99 L142,99 L142,105.625767 Z M142,107.944785 L140.238365,107.944785 L140.238365,106.398773 L142,106.398773 L142,107.944785 Z M7,107.944785 L7,99.0552147 L11.2279252,99.0552147 C13.1657242,99.0552147 14.1052632,99.8834356 14.1052632,101.595092 C14.1052632,103.417178 12.7546759,104.521472 10.1122227,104.907975 L9.87733797,103.417178 C11.4628099,103.141104 12.2849065,102.533742 12.2849065,101.650307 C12.2849065,100.932515 11.8738582,100.546012 11.1104828,100.546012 L8.76163549,100.546012 L8.76163549,108 L7,108 L7,107.944785 Z" id="Shape" fill="#00673D" fill-rule="nonzero"></path>
                    </g>
                </g>
            </g>
        </g>
    </g>
</svg>