<?xml version="1.0" encoding="UTF-8"?>
<svg width="112px" height="112px" viewBox="0 0 112 112" version="1.1" xmlns="http://www.w3.org/2000/svg" xmlns:xlink="http://www.w3.org/1999/xlink">
    <!-- Generator: Sketch 48.2 (47327) - http://www.bohemiancoding.com/sketch -->
    <title>elo</title>
    <desc>Created with Sketch.</desc>
    <defs></defs>
    <g id="Page-1" stroke="none" stroke-width="1" fill="none" fill-rule="evenodd">
        <g id="SVG" transform="translate(-706.000000, -599.000000)">
            <g id="brands-sprite">
                <g id="Artboard" transform="translate(707.000000, 0.000000)">
                    <g id="elo" transform="translate(0.000000, 600.000000)">
                        <path d="M55,0 C85.3758475,0 110,24.6249294 110,55 C110,85.3758475 85.3758475,110 55,110 C24.6241525,110 0,85.3758475 0,55 C0,24.6249294 24.6241525,0 55,0" id="Fill-1" fill="#0E0B16" fill-rule="nonzero"></path>
                        <path d="M55,0 C85.3758475,0 110,24.6249294 110,55 C110,85.3758475 85.3758475,110 55,110 C24.6241525,110 0,85.3758475 0,55 C0,24.6249294 24.6241525,0 55,0 Z" id="Stroke-3" stroke="#221F1F" stroke-width="0.021"></path>
                        <path d="M22.0494794,58.2083077 C22.0320071,57.9243195 22.0137752,57.6410946 22.0137752,57.339548 C22.0137752,52.090346 26.2488979,47.8343395 31.4723425,47.8343395 C34.2960108,47.8343395 36.8370845,49.0932013 38.5668377,51.0620338 L22.0494794,58.2083077 Z M47.5308642,53.4377633 C45.7843984,46.1494953 39.2550926,40.7407407 31.4723425,40.7407407 C22.3320741,40.7407407 14.9382716,48.1710029 14.9382716,57.339548 C14.9382716,60.7443532 15.9607784,63.9186089 17.7087635,66.5432099 L34.0665925,59.3610557 L40.878493,56.3463526 L40.878493,56.363911 L47.5308642,53.4377633 Z" id="Fill-5" fill="#FFFFFF" fill-rule="nonzero"></path>
                        <path d="M42.0987654,68.7395419 C36.2544378,74.1941369 28.5225198,74.7297111 21.7283951,70.6738059 L25.5673456,64.9351943 C29.4333046,67.2073274 33.316519,66.8392123 37.217739,63.8271605 L42.0987654,68.7395419 Z" id="Fill-7" fill="#FFFFFF" fill-rule="nonzero"></path>
                        <path d="M50.2913492,64.0365577 L50.2469136,32.5925926 L56.5446543,32.5925926 L56.5446543,63.1875056 C56.5446543,63.4809674 56.5834345,63.7392748 56.9906265,63.8890626 L62.4691358,65.9043193 L60.0009385,71.9753086 L53.5828176,69.4067543 C51.1493608,68.4331339 50.2953888,67.0216136 50.2913492,64.0365577" id="Fill-9" fill="#FFFFFF" fill-rule="nonzero"></path>
                        <path d="M71.9753086,64.2514348 C69.7519451,62.4995926 68.3206833,59.7654233 68.3206833,56.6912178 C68.3206833,53.9570486 69.4529095,51.4927494 71.2661454,49.7486178 L67.4349902,43.4567901 C63.5840514,46.5487299 61.1111111,51.32543 61.1111111,56.6912178 C61.1111111,62.4741477 63.9820046,67.5754629 68.3572067,70.617284 L71.9753086,64.2514348 Z" id="Fill-11" fill="#009CD6" fill-rule="nonzero"></path>
                        <path d="M75.1277969,47.2951579 C76.1546253,46.929193 77.2612833,46.7291528 78.4156825,46.7291528 C82.5769983,46.7291528 86.1255042,49.3203709 87.5107833,52.962963 L95.0617284,52.3380312 C93.2389515,44.90398 86.4800418,39.382716 78.4156825,39.382716 C76.1374071,39.382716 73.9640059,39.8269913 71.9753086,40.627152 L75.1277969,47.2951579 Z" id="Fill-13" fill="#FBED21" fill-rule="nonzero"></path>
                        <path d="M87.8886379,57.037037 C87.6507219,62.0721257 83.5349273,66.0807543 78.4917151,66.0807543 C77.7014401,66.0807543 76.9338959,65.9812466 76.200448,65.7960093 L73.3333333,72.5028269 C74.9578296,73.039403 76.6899184,73.3333333 78.4917151,73.3333333 C87.4241714,73.3333333 94.7033391,66.2001635 95.0617284,57.2651393 L87.8886379,57.037037 Z" id="Fill-15" fill="#E03626" fill-rule="nonzero"></path>
                    </g>
                </g>
            </g>
        </g>
    </g>
</svg>