<?xml version="1.0" encoding="UTF-8"?>
<svg width="171px" height="75px" viewBox="0 0 171 75" version="1.1" xmlns="http://www.w3.org/2000/svg" xmlns:xlink="http://www.w3.org/1999/xlink">
    <!-- Generator: Sketch 48.2 (47327) - http://www.bohemiancoding.com/sketch -->
    <title>Hipercard_logo</title>
    <desc>Created with Sketch.</desc>
    <defs></defs>
    <g id="Page-1" stroke="none" stroke-width="1" fill="none" fill-rule="evenodd">
        <g id="SVG" transform="translate(-709.000000, -404.000000)" fill="#B3131B" fill-rule="nonzero">
            <g id="Hipercard_logo" transform="translate(709.000000, 404.000000)">
                <path d="M71.4301047,74.9743389 L0,75 L0,74.8267919 C0,74.7315253 0.113925078,74.1138385 0.253162997,73.4541583 C0.392400916,72.7944869 0.608874125,71.7451866 0.734210729,71.1223867 C0.859538688,70.4995868 1.07383333,69.4412624 1.21040882,68.7705548 C1.34698405,68.0998472 1.57390054,66.9827271 1.71466864,66.2880656 C1.85543674,65.5934042 2.07595585,64.4958826 2.20470727,63.8491288 C2.33345869,63.2023751 2.54841036,62.1440507 2.68239206,61.497297 C2.81636512,60.8505432 3.0447772,59.733423 3.18998024,59.0148077 C3.33517463,58.2961924 3.55589258,57.1986709 3.68045977,56.575871 C3.80503561,55.9530711 4.00299966,54.9927397 4.12038278,54.4418013 C4.23776589,53.8908629 4.38741251,53.1461162 4.45292505,52.7868085 C4.51844623,52.4275009 4.73044993,51.3691765 4.92404821,50.4349766 C5.11765514,49.5007767 5.33138785,48.4424524 5.39901844,48.0831447 C5.46664903,47.7238371 5.68134135,46.6655127 5.87610672,45.7313129 C6.07088074,44.797113 6.28484687,43.7387886 6.35158701,43.379481 C6.4183358,43.0201733 6.63348631,41.961849 6.8297127,41.0276491 C7.02593909,40.0934492 7.23772666,39.0547235 7.30035174,38.7193697 C7.36297681,38.3840158 7.53450417,37.5216775 7.68151403,36.8030622 C7.82853227,36.0844469 8.10672282,34.7321436 8.2997073,33.7979437 C8.49270043,32.8637438 8.82279614,31.2370601 9.03325236,30.183091 C9.24370858,29.1291219 9.49520308,27.8748115 9.59212325,27.3957347 C9.68905207,26.9166578 9.86432275,26.0543194 9.98161941,25.4794272 C10.0989161,24.904535 10.311914,23.8658092 10.4549384,23.1711478 C10.5979715,22.4764863 10.8306802,21.3397676 10.9720794,20.6451061 C11.1134786,19.9504447 11.3313783,18.8725191 11.4562826,18.2497192 C11.5811956,17.6269192 11.7943837,16.5881935 11.9300339,15.9414397 C12.0656841,15.294686 12.2990239,14.1579672 12.4485581,13.4153981 C12.5980924,12.6728289 12.8485927,11.5361102 13.0052159,10.8893564 C13.1618477,10.2426027 13.3832832,9.4586587 13.4972947,9.14725874 C13.6113149,8.83585878 13.9260915,8.16082031 14.1968041,7.64717239 L14.689004,6.71326752 L15.1364569,6.12283665 C15.3825568,5.79809918 15.8219352,5.28495211 16.11286,4.98250915 C16.4037761,4.68006618 16.8946792,4.22496842 17.2037414,3.97118137 C17.5128036,3.71739519 17.9601873,3.37489269 18.1979275,3.21006673 C18.4356676,3.0452399 18.9025028,2.75667796 19.235339,2.56881625 C19.5681752,2.3809554 20.0350104,2.13494769 20.2727506,2.0221338 C20.5104907,1.90931991 20.9967774,1.70342661 21.3533876,1.56459449 C21.7099978,1.42576149 22.3907991,1.19305121 22.8662794,1.04746063 C23.3417597,0.901870038 24.2342881,0.682421476 24.849672,0.559797832 C25.4650558,0.437173318 26.4376292,0.273391746 27.010946,0.195837912 L28.0533371,0.0548316538 L99.5266673,0.0274153914 L171,0 L171,0.173110505 C171,0.268321371 170.885331,0.885956846 170.745177,1.54563524 C170.605023,2.20531276 170.370836,3.33300743 170.224768,4.05162273 C170.078692,4.77023803 169.865478,5.80896378 169.750957,6.35990217 C169.636426,6.91084083 169.419616,7.96916517 169.269157,8.71173431 C169.118689,9.45430346 168.88719,10.5910222 168.754722,11.237776 C168.622244,11.8845297 168.407785,12.9428541 168.278143,13.5896078 C168.148493,14.2363616 167.932729,15.294686 167.798669,15.9414397 C167.66461,16.5881935 167.456755,17.6073206 167.33677,18.2061667 C167.216794,18.8050128 166.999603,19.8829384 166.854132,20.6015537 C166.708669,21.320169 166.475001,22.4568877 166.334873,23.1275953 C166.194744,23.7983029 165.981288,24.8370287 165.860516,25.4358748 C165.739744,26.0347208 165.522398,27.1126438 165.377523,27.8312591 C165.232649,28.5498744 164.999508,29.6865931 164.859423,30.3573007 C164.719346,31.0280083 164.510567,32.0471355 164.395466,32.6220277 C164.280374,33.19692 164.063815,34.2748429 163.914228,35.0174121 C163.764642,35.7599812 163.546596,36.8379041 163.429679,37.4127964 C163.312763,37.9876886 163.103906,39.0068158 162.96555,39.6775234 C162.827203,40.348231 162.590707,41.5045483 162.440015,42.2471175 C162.289322,42.9896866 162.07361,44.048011 161.960653,44.5989494 C161.847696,45.1498878 161.636297,46.1886135 161.490878,46.9072288 C161.345451,47.6258441 161.114082,48.7625628 160.976711,49.4332704 C160.839349,50.1039781 160.623905,51.1623024 160.497954,51.7851023 C160.372004,52.4079023 160.153067,53.4858252 160.011426,54.1804867 C159.869784,54.8751481 159.63845,56.0118669 159.497336,56.7065283 C159.356231,57.4011898 159.144763,58.4399155 159.027398,59.0148077 C158.910032,59.5897 158.695495,60.6480243 158.550647,61.3666396 C158.405789,62.0852549 158.17015,63.2176881 158.026996,63.8831607 L157.766718,65.0931085 L157.456549,65.9301255 C157.285947,66.3904835 157.029525,67.0023257 156.886708,67.2897718 C156.743899,67.5772179 156.453,68.08436 156.240271,68.4167696 C156.027549,68.7491706 155.731022,69.1750873 155.581324,69.3632513 C155.431625,69.551424 154.98106,70.0371992 154.580066,70.4427508 L153.850991,71.1801198 L153.149398,71.6825147 C152.763515,71.9588288 152.347868,72.2398204 152.225721,72.3069347 C152.103575,72.374049 151.638641,72.6131345 151.192537,72.8382397 C150.746442,73.0633448 150.116266,73.3498154 149.792153,73.474837 C149.468039,73.5998587 148.826141,73.8127082 148.365712,73.9478253 C147.905283,74.0829424 147.411855,74.2160038 147.269211,74.2435115 C147.126567,74.2710192 146.631384,74.3742559 146.168811,74.4729283 C145.706238,74.5716008 144.772568,74.7190084 144.093988,74.8005037 L142.860212,74.9486778 L71.4301047,74.9743389 Z M46.0165131,56.3581088 L47.8753315,56.3581088 L47.9278064,56.2203263 C47.956668,56.144545 47.9802812,55.9663894 47.9802812,55.8244171 C47.9802812,55.6824449 48.0415516,55.1662875 48.1164372,54.6774026 C48.1913236,54.188509 48.3670663,53.0633665 48.5069768,52.1770743 C48.6468873,51.2907821 48.8563848,49.9580774 48.9725274,49.2155082 C49.088669,48.4729391 49.2304132,47.522407 49.2875149,47.1032148 C49.3446166,46.6840225 49.4143168,46.341047 49.442403,46.341047 C49.4704901,46.341047 49.5906604,46.5262756 49.7094492,46.7526699 L49.9254279,47.1643014 L50.4046809,47.6508171 L50.8839348,48.1373327 L51.4738528,48.3752771 L52.06377,48.6132215 L52.7668436,48.7050562 L53.4699173,48.7968822 L54.3623644,48.7417186 L55.2548124,48.6865551 L56.2210601,48.4346042 L57.1873087,48.1826534 L57.7060145,47.9440992 C57.9913026,47.8128931 58.4970408,47.526832 58.829877,47.3084078 L59.4350337,46.9112618 L59.9992766,46.3430592 C60.3096097,46.030553 60.7472677,45.5294386 60.97185,45.2294842 C61.1964314,44.9295298 61.3801803,44.6622049 61.3801803,44.6354463 C61.3801803,44.608679 61.4905194,44.4229278 61.6253777,44.2226737 C61.7602369,44.0224108 62.0362342,43.4665859 62.2387058,42.987509 C62.4411783,42.5084321 62.7576078,41.6460938 62.9418832,41.0712015 L63.27693,40.0259429 L63.4501172,39.1205312 C63.5453698,38.6225526 63.6679079,37.7994114 63.7224239,37.2913286 L63.8215451,36.3675378 L63.764299,35.5835938 L63.7070529,34.7996498 L63.5266592,34.0157059 L63.3462654,33.2317619 L63.0542496,32.6448144 L62.7622338,32.0578668 L62.1981664,31.4554059 L61.6340981,30.8529362 L60.9668211,30.5054313 L60.2995433,30.1579177 L59.5647101,29.9806505 L58.829877,29.8033834 L58.0950438,29.7490299 L57.3602106,29.6946852 L56.5416367,29.789464 L55.7230628,29.8842341 L55.0549412,30.0561182 L54.3868188,30.2279935 L53.8064069,30.498672 C53.4871799,30.6475429 53.0226762,30.900391 52.7741773,31.0605594 C52.5256774,31.2207279 52.2693374,31.405007 52.2045311,31.4700656 C52.1397249,31.535133 51.9845731,31.65566 51.8597483,31.7378957 L51.6327946,31.8874287 L51.7915022,31.1223604 C51.8787917,30.7015741 51.9517433,30.3083042 51.9536176,30.2484196 L51.9570238,30.1395385 L50.3720768,30.1395385 L48.7871289,30.1395385 L48.509209,31.9034124 C48.3563524,32.8735431 48.115009,34.3728359 47.9728906,35.2351743 C47.8307712,36.0975126 47.6164593,37.3910202 47.4966426,38.1096355 C47.376825,38.8282508 47.1631044,40.1021597 47.0217078,40.9405442 C46.8803112,41.7789287 46.6466049,43.1116335 46.5023597,43.9021103 C46.3581154,44.6925871 46.146799,45.8489044 46.0327676,46.4717044 C45.918737,47.0945043 45.7041173,48.2704202 45.5558358,49.0848509 C45.4075551,49.8992816 45.1692625,51.1927891 45.0262968,51.9593121 C44.883332,52.7258351 44.6506769,53.9409482 44.5092864,54.6595635 C44.3678958,55.3781788 44.2309463,56.0543305 44.204953,56.1621228 L44.1576929,56.3581088 L46.0165113,56.3581088 L46.0165131,56.3581088 Z M54.0187884,46.2871727 L53.2970154,46.3308906 L52.825224,46.2469825 L52.3534325,46.1630656 L51.8742634,45.942638 L51.3950942,45.7222104 L51.0603276,45.400114 L50.7255618,45.0780262 L50.5323344,44.6425018 C50.4260594,44.4029634 50.2895524,43.9960442 50.2289866,43.7382399 L50.1188662,43.2695111 L50.1629865,42.5187715 L50.2071067,41.7680406 L50.4298597,40.5921247 C50.5523737,39.9453709 50.7723525,38.7302578 50.918701,37.8918732 C51.0650495,37.0534887 51.2866277,35.825066 51.4110972,35.162041 L51.6374051,33.9565442 L52.1329852,33.5410017 C52.4055538,33.3124559 52.8373202,33.0061429 53.0924664,32.8603119 L53.5563683,32.5951646 L54.161525,32.4064257 L54.7666818,32.2176869 L55.5447404,32.1716606 L56.3227991,32.1256344 L56.9563333,32.2616835 L57.5898676,32.3977327 L58.0369704,32.6051991 L58.4840731,32.8126655 L58.8589859,33.1924515 L59.2338986,33.5722288 L59.4361619,33.974392 C59.547407,34.1955862 59.7036567,34.628541 59.7833844,34.9365265 L59.9283428,35.4964889 L59.8839398,37.1514817 L59.839536,38.8064745 L59.6175101,39.7846972 C59.4953955,40.3227267 59.2629366,41.1458678 59.1009344,41.6138998 L58.8063856,42.4648797 L58.445663,43.15374 C58.2472658,43.5326201 57.9413279,44.0446139 57.7658014,44.2915127 C57.5902748,44.5384028 57.3105013,44.8582258 57.1440832,45.0022188 C56.9776651,45.1462119 56.698961,45.3712561 56.5247407,45.5023054 L56.2079758,45.7405721 L55.4742682,45.9920091 L54.7405606,46.2434547 L54.0187884,46.2871727 Z M71.9704232,48.6817818 L72.9213838,48.6927309 L73.8723443,48.6053385 C74.3953727,48.557274 75.2512372,48.457208 75.7742655,48.3829772 C76.2972938,48.3087377 77.2008239,48.1425677 77.7821098,48.0137047 L78.8389927,47.77941 L78.8916318,47.3868718 C78.9205834,47.1709737 79.039278,46.5282616 79.1553981,45.9586218 L79.3665243,44.9229098 L79.319941,44.8759777 L79.2733587,44.8290369 L78.9502525,44.9862612 C78.7725448,45.0727302 78.219046,45.2789946 77.720255,45.4446333 L76.8133628,45.745781 L75.8615594,45.9315496 L74.9097559,46.1173182 L73.396864,46.1202797 L71.8839722,46.1232413 L71.3652664,45.9563309 C71.0799783,45.8645311 70.6603747,45.6965667 70.432815,45.5830865 L70.0190685,45.3767437 L69.677588,45.0659099 L69.3361076,44.7550674 L69.0696761,44.2858683 L68.8032438,43.8166691 L68.6362015,43.2281362 L68.4691592,42.6396034 L68.4679662,41.5505136 L68.4667732,40.4614238 L68.6150737,39.4898472 L68.7633734,38.5182619 L70.0643212,38.4570272 L71.3652699,38.3957837 L76.1742084,38.4268976 L80.9831469,38.4580114 L81.1283465,37.8374153 C81.2082055,37.4960861 81.3302994,36.7905365 81.399665,36.2695274 L81.5257849,35.3222356 L81.5284476,34.5253827 L81.5311103,33.7285298 L81.3941832,33.133647 L81.2572561,32.5387642 L81.0308531,32.1448498 C80.9063309,31.9282025 80.6869244,31.6142242 80.5432835,31.4471309 C80.3996427,31.2800376 80.1431669,31.0444537 79.9733365,30.9236131 C79.8035071,30.8027725 79.4700407,30.5996962 79.2323005,30.4723489 L78.8000457,30.2407892 L78.0447937,30.0573899 L77.2895416,29.8739906 L76.3589999,29.7843509 L75.4284582,29.6947026 L74.5639486,29.7514253 L73.6994389,29.808148 L72.6620274,30.0088551 L71.6246159,30.2095709 L70.9762336,30.4707723 C70.6196234,30.6144344 70.0749824,30.876411 69.7659202,31.0529465 C69.456858,31.2294819 69.0289257,31.5168497 68.8149596,31.6915385 C68.6009935,31.8662186 68.2305329,32.2058319 67.9917148,32.4462239 C67.7528957,32.686616 67.3996346,33.118482 67.2066899,33.4059281 C67.0137452,33.6933743 66.7179567,34.2029378 66.5493833,34.5382916 C66.3808091,34.8736454 66.1611511,35.3440118 66.0612535,35.5835503 C65.961356,35.8230887 65.7798219,36.3130537 65.657844,36.6723613 C65.5358668,37.031669 65.344135,37.7176199 65.231773,38.1966968 C65.1194109,38.6757737 64.9654426,39.4643951 64.8896217,39.9491861 L64.7517679,40.8306701 L64.7530473,42.1268518 L64.7543268,43.4230334 L64.8857245,43.9892152 C64.9579932,44.3006151 65.0961712,44.7709815 65.1927862,45.0344738 C65.2894021,45.2979661 65.4680599,45.689938 65.5898053,45.9055226 C65.7115499,46.1211072 65.971552,46.4682115 66.1675882,46.6768712 C66.3636236,46.885531 66.7185307,47.2021485 66.9562708,47.3804609 C67.194011,47.5587733 67.6172455,47.8095657 67.8967925,47.9377928 L68.4050584,48.1709203 L69.1137307,48.3435274 C69.5035009,48.438463 70.0917426,48.5509415 70.4209349,48.5934923 C70.7501272,48.6360343 71.4473983,48.6757628 71.9704266,48.6817818 L71.9704232,48.6817818 Z M73.5988195,36.4110902 C71.2054385,36.4110902 69.2472179,36.393826 69.2472179,36.3727292 C69.2472179,36.3516324 69.3493346,36.0478541 69.4741439,35.6976664 C69.5989531,35.3474786 69.818153,34.8262517 69.9612544,34.5393805 L70.2214372,34.0177964 L70.7933518,33.4447072 L71.3652664,32.8716181 L71.9271977,32.6008874 C72.2362599,32.4519816 72.6447407,32.2898533 72.8349328,32.2405954 C73.0251249,32.1913376 73.569766,32.1259915 74.0452463,32.0953829 L74.9097559,32.0397142 L75.5736413,32.125678 L76.2375259,32.2116418 L76.7199837,32.4341948 L77.2024423,32.656739 L77.467099,32.9442461 C77.6126608,33.1023763 77.7861237,33.3352512 77.8525734,33.4617362 L77.9733904,33.6917106 L78.0531751,34.2021278 L78.1329598,34.712545 L78.0416901,35.5618176 L77.9504203,36.4110902 L73.5988195,36.4110902 Z M99.4623564,48.6822521 L100.413853,48.6928789 L101.493954,48.5639027 C102.088019,48.4929645 102.878795,48.3754078 103.251243,48.3026665 C103.623699,48.2299252 104.226695,48.0855227 104.591233,47.9817808 C104.955779,47.8780302 105.285589,47.7658652 105.324138,47.7325127 C105.362686,47.6991603 105.465701,47.3038435 105.553051,46.8540251 C105.640401,46.4042068 105.750436,45.8009968 105.797569,45.5135506 C105.844702,45.2261045 105.869064,44.9755299 105.851714,44.9567327 C105.834354,44.9379267 105.770588,44.9622203 105.710003,45.0106941 C105.649418,45.059168 105.225238,45.2390309 104.767385,45.4103662 L103.934931,45.7218968 L102.74949,45.9533084 L101.564057,46.1847112 L100.556169,46.1500609 L99.54828,46.1154018 L98.9758017,45.9153655 L98.4033148,45.7153291 L97.9609453,45.3254215 L97.518567,44.9355226 L97.2251265,44.3970402 L96.931686,43.8585578 L96.7919294,43.1381743 L96.6521728,42.4177908 L96.6530373,41.4831815 L96.6539018,40.5485722 L96.8237347,39.4162087 L96.9935763,38.2838452 L97.1732732,37.674111 C97.2721126,37.3387572 97.3839456,36.9467852 97.4217938,36.8030622 C97.4596334,36.6593391 97.6181845,36.2477686 97.7741161,35.8884609 C97.9300477,35.5291533 98.2082123,34.9738248 98.3922664,34.6543937 L98.7268921,34.0736132 L99.1378886,33.644552 L99.5488765,33.2154907 L99.9841139,32.943497 L100.41936,32.6715033 L100.9783,32.4980426 C101.28572,32.4026454 101.829021,32.2787735 102.185631,32.2227738 L102.834013,32.1209743 L103.784974,32.1690562 L104.735934,32.2171381 L105.859797,32.4437937 L106.983659,32.6704493 L107.440769,32.8422202 C107.692177,32.9367028 107.908866,33.0139997 107.922283,33.0139997 C107.935709,33.0139997 107.996009,32.6906228 108.056274,32.2953844 C108.116547,31.900146 108.223824,31.2498819 108.294662,30.8503666 C108.3655,30.4508427 108.4064,30.1067697 108.385548,30.08576 C108.364687,30.0647503 108.026872,30.0107017 107.634842,29.965651 C107.242805,29.9206004 106.177305,29.840612 105.267063,29.7878961 L103.612072,29.6920546 L102.444984,29.7822953 L101.277896,29.8725359 L100.413386,30.0555781 L99.5488765,30.238629 L98.9921237,30.4629938 C98.6859144,30.586404 98.2373981,30.8090876 97.9954305,30.9578541 C97.7534629,31.1066292 97.4454555,31.306744 97.3109723,31.4025593 C97.1764806,31.4983747 96.7684753,31.8722028 96.4042833,32.2332961 L95.7421122,32.889823 L95.3724911,33.4354131 C95.1692016,33.7354808 94.8175278,34.3611813 94.5910003,34.825851 L94.1791306,35.6706987 L93.8634549,36.5853 C93.6898268,37.0883307 93.4474183,37.9114718 93.3247531,38.4145026 L93.1017355,39.3291038 L93.0207828,40.1566002 L92.9398388,40.9840966 L92.9407033,42.0729077 L92.9415678,43.1617188 L93.0232121,43.7951194 L93.1048564,44.4285286 L93.363803,45.0800906 L93.6227409,45.7316526 L93.921818,46.2027245 L94.2208864,46.6737877 L94.6964705,47.1453736 L95.1720545,47.6169594 L95.6750954,47.8848418 L96.1781362,48.1527241 L96.8390884,48.3376913 C97.2026061,48.4394211 97.7277957,48.5561765 98.0061764,48.597142 C98.2845485,48.6381161 98.9404865,48.6764161 99.4638001,48.6822521 L99.4623564,48.6822521 Z M113.683012,48.6500756 L114.8501,48.6163834 L115.584933,48.4268867 L116.319767,48.2373814 L116.795247,48.0108912 C117.056761,47.8863225 117.484693,47.6404167 117.746207,47.4644387 C118.007722,47.2884607 118.412511,46.9539083 118.64573,46.7209898 C118.878957,46.4880627 119.224813,46.0906641 119.414296,45.8378857 C119.603779,45.5850986 119.770232,45.3897746 119.784185,45.4038333 C119.79813,45.4178921 119.754532,45.8206999 119.687291,46.2989667 C119.620058,46.7772335 119.56428,47.4135259 119.563355,47.712949 L119.561712,48.2573545 L121.148355,48.2573545 L122.734999,48.2573545 L122.783506,47.0161099 L122.832005,45.7748653 L123.058403,44.1634249 C123.182927,43.2771327 123.384046,41.9640266 123.505337,41.2454113 C123.626619,40.526796 123.837447,39.3116829 123.973841,38.5451599 C124.110235,37.7786369 124.326301,36.5831224 124.453998,35.8884609 L124.686171,34.6254401 L124.693951,33.5344688 L124.701732,32.4435063 L124.456894,31.9392909 L124.212065,31.4350843 L123.880059,31.1139547 L123.548053,30.7928252 L123.002971,30.5145251 L122.457889,30.2362337 L121.645518,30.0541757 L120.833155,29.8721091 L119.714679,29.7863543 L118.596202,29.7005909 L117.155453,29.7904047 C116.363044,29.8398019 115.247878,29.937342 114.677302,30.0071565 L113.639891,30.1341032 L112.932869,30.1368034 L112.225847,30.1395037 L112.122979,30.6403568 C112.066397,30.915826 111.909168,31.5702972 111.773587,32.0947383 C111.637997,32.6191707 111.539634,33.0609231 111.554996,33.0764017 C111.570358,33.0918802 111.948486,33.0054112 112.395282,32.8842483 C112.842078,32.7630767 113.79118,32.5638155 114.5044,32.4414419 L115.801165,32.2189412 L116.968253,32.170476 L118.135341,32.1220109 L118.887101,32.2547848 L119.638861,32.3875501 L120.14064,32.6370882 L120.642418,32.8866175 L120.923384,33.3085536 L121.20435,33.7304897 L121.200373,34.3957097 L121.196396,35.0609297 L121.047458,35.7909209 L120.898521,36.5209208 L117.787885,36.532227 L114.677259,36.5435332 L113.659195,36.8247861 C113.099252,36.9794757 112.479226,37.1848516 112.281348,37.2811722 C112.083479,37.3775015 111.88555,37.456314 111.841512,37.456314 C111.797474,37.456314 111.464378,37.6424223 111.101301,37.8698793 L110.441162,38.2834445 L109.921263,38.8062568 C109.635318,39.0938074 109.270002,39.525055 109.109445,39.7645934 C108.948897,40.0041319 108.68804,40.5045407 108.529774,40.8766092 L108.242005,41.5531006 L108.109934,42.3138398 L107.977863,43.074579 L107.977863,43.872634 L107.977863,44.6706976 L108.104038,45.3351511 L108.230222,45.9996133 L108.464314,46.4329863 C108.593074,46.6713401 108.829353,47.0204826 108.989391,47.208873 L109.280367,47.5513868 L109.797448,47.867865 L110.31452,48.1843432 L110.90638,48.3531002 C111.231911,48.4459192 111.727362,48.5582845 112.007394,48.6027951 L112.516538,48.6837329 L113.683626,48.6500407 L113.683012,48.6500756 Z M114.763649,46.214414 L114.072042,46.2507454 L113.613981,46.1332061 C113.362046,46.0685568 112.979768,45.9243808 112.764471,45.8128169 L112.373021,45.6099583 L112.159375,45.35414 C112.04187,45.2134308 111.862364,44.9369599 111.760473,44.7397457 L111.575225,44.3811871 L111.538899,43.5438479 L111.502581,42.7065173 L111.649124,42.1986001 C111.729731,41.919246 111.918825,41.4345073 112.069345,41.1213914 L112.343022,40.5521 L112.867097,40.0277024 L113.391171,39.5033136 L113.947734,39.2333146 L114.504296,38.9633156 L115.195904,38.7977902 L115.887512,38.6322648 L118.048786,38.6322648 L120.21006,38.6322648 L120.346799,38.6892314 L120.48353,38.746198 L120.368455,39.4296229 C120.305156,39.8055066 120.154204,40.4854212 120.032991,40.9405442 C119.911778,41.3956672 119.697795,42.0647024 119.557468,42.4272939 C119.41714,42.7898854 119.302325,43.1104488 119.302325,43.1396638 C119.302325,43.1688788 119.160251,43.4330853 118.986606,43.7267856 L118.670896,44.2607908 L118.152475,44.7782896 C117.867351,45.0629135 117.602664,45.2957884 117.564297,45.2957884 C117.52593,45.2957884 117.351153,45.393825 117.175916,45.5136465 L116.857293,45.7314958 L116.156279,45.9547891 L115.455257,46.1780825 L114.763649,46.214414 Z M142.903437,48.6812156 L143.724722,48.691642 L144.50278,48.5644079 C144.930712,48.4944279 145.475354,48.3816967 145.713094,48.313903 C145.950834,48.2461006 146.378766,48.0701313 146.664054,47.922863 L147.18276,47.6551026 L147.628985,47.2593677 L148.075211,46.8636328 L148.545167,46.2321398 C148.803646,45.8848265 149.037704,45.5418597 149.065308,45.4699982 L149.115484,45.3393409 L149.071843,45.7748653 C149.047836,46.0144037 148.994011,46.4063757 148.95223,46.6459141 C148.910457,46.8854526 148.850555,47.3460197 148.819121,47.6693965 L148.76196,48.2573545 L150.457825,48.2573545 L152.15369,48.2573545 L152.15369,47.6693965 L152.15369,47.0814386 L152.412058,44.860264 C152.554166,43.638618 152.764302,42.0119343 152.879031,41.2454113 C152.99376,40.4788883 153.170846,39.3813668 153.272565,38.8064745 C153.374274,38.2315823 153.554412,37.1928565 153.672858,36.4981951 C153.791296,35.8035336 154.005254,34.5884205 154.148304,33.7979437 C154.291355,33.0074668 154.520303,31.7531565 154.657068,31.0105874 C154.793842,30.2680182 155.006416,29.1117009 155.129453,28.4409933 C155.252499,27.7702857 155.47294,26.5943697 155.619319,25.8278467 C155.765707,25.0613238 155.979543,23.9834008 156.094506,23.4324624 C156.209477,22.881524 156.30338,22.4013583 156.303181,22.3654276 L156.303181,22.3000989 L154.452975,22.3000989 L152.602768,22.3000989 L152.548123,22.8445044 C152.518072,23.1439275 152.37644,24.1336567 152.233372,25.0439028 C152.090313,25.9541488 151.857094,27.4044451 151.715116,28.2667835 C151.573138,29.1291219 151.43626,29.9653375 151.410947,30.1250356 L151.364929,30.4154084 L151.218913,30.3528497 C151.138609,30.3184345 150.70332,30.1967839 150.251614,30.0825022 L149.430329,29.8747223 L148.306467,29.7865373 L147.182604,29.6983436 L146.231644,29.7876261 L145.280683,29.8769086 L144.416174,30.0970836 L143.551664,30.3172586 L142.73038,30.7208591 L141.909096,31.1244596 L141.303939,31.5758719 L140.698782,32.027293 L140.17616,32.591872 C139.888719,32.9023922 139.47347,33.4159975 139.253383,33.733216 L138.853218,34.3099897 L138.383306,35.295207 C138.12486,35.8370777 137.810343,36.5548133 137.684384,36.8901671 C137.558425,37.2255209 137.336281,37.9689088 137.190723,38.5421373 L136.926088,39.5843647 L136.795703,40.9375217 L136.665326,42.2906699 L136.763232,43.379481 L136.861129,44.468292 L136.976878,44.860264 C137.040532,45.0758486 137.174764,45.4599463 137.27516,45.7138222 L137.457701,46.1754084 L137.790503,46.629312 L138.123313,47.0832242 L138.503308,47.3968279 L138.883312,47.7104316 L139.402018,47.9699345 C139.687306,48.1126559 140.165881,48.2971092 140.46552,48.379824 C140.765159,48.4625388 141.251446,48.5618383 141.546157,48.6004955 C141.840869,48.6391526 142.451576,48.6754754 142.903282,48.6812156 L142.903437,48.6812156 Z M144.377478,46.2098932 L143.724722,46.2448223 L143.284141,46.164921 C143.041819,46.1209766 142.654061,46.0031759 142.422459,45.9031447 L142.001356,45.7212697 L141.64702,45.4287279 L141.292683,45.1361774 L141.029362,44.628025 L140.766032,44.1198725 L140.646039,43.5536907 L140.526036,42.987509 L140.536211,41.8551455 L140.546378,40.722782 L140.685737,39.7210758 L140.825096,38.7193697 L141.04169,38.0225306 C141.160811,37.6392691 141.258855,37.2776706 141.259572,37.218988 C141.260437,37.1603055 141.377906,36.8467279 141.520948,36.5221489 C141.663999,36.19757 141.902984,35.6968302 142.052042,35.409384 C142.201092,35.1219379 142.479698,34.6738268 142.671161,34.4135836 C142.862615,34.1533403 143.203699,33.7613683 143.429111,33.5425347 C143.654523,33.3237011 144.013105,33.0366731 144.225947,32.9046918 L144.612945,32.6647353 L145.292691,32.4277403 L145.972447,32.1907453 L147.398887,32.1898743 L148.825328,32.1898743 L149.646612,32.4194479 C150.098319,32.5457064 150.577931,32.6921385 150.712406,32.7448456 L150.956924,32.8406697 L150.909168,33.0797726 C150.882904,33.2112749 150.780157,33.7892332 150.680843,34.3641254 C150.581528,34.9390177 150.385837,36.0365392 150.24596,36.8030622 C150.106082,37.5695852 149.891182,38.7259025 149.768387,39.3726563 C149.645601,40.0194101 149.467745,40.8425512 149.373151,41.2018589 C149.278556,41.5611665 149.14511,42.0588403 149.076589,42.3078034 C149.008077,42.5567666 148.844927,42.9879358 148.71404,43.2659572 C148.583153,43.5439785 148.354119,43.9478403 148.205077,44.1634249 C148.056044,44.3790095 147.803953,44.6776486 147.644884,44.8270596 C147.485814,44.9764793 147.141696,45.2420012 146.880182,45.4171168 L146.404701,45.7355026 L145.717468,45.9552334 L145.030235,46.1749729 L144.377478,46.2099019 L144.377478,46.2098932 Z M17.143001,48.2573545 L19.2435346,48.2573545 L19.3942445,47.320977 C19.4771251,46.8059694 19.6390131,45.8162401 19.7539843,45.1215787 C19.8689554,44.4269172 20.0829388,43.1334097 20.2295078,42.2471175 C20.3760681,41.3608253 20.5957832,40.0477191 20.7177569,39.3291038 C20.8397305,38.6104885 21.0335277,37.4957464 21.1484124,36.8518932 C21.2633057,36.2080487 21.3791067,35.659288 21.4057596,35.6324248 L21.4542153,35.5835938 L27.102342,35.5835938 L32.7504686,35.5835938 L32.8131801,35.6467623 L32.8759003,35.7099307 L32.77796,36.212944 C32.7240924,36.4895978 32.5647546,37.3431125 32.4238828,38.1096355 C32.2830023,38.8761584 32.0461699,40.169666 31.8975866,40.9840966 C31.7490034,41.7985273 31.5341554,42.9548447 31.4201525,43.5536907 C31.306141,44.1525368 31.0754293,45.4068472 30.9074638,46.341047 C30.7394895,47.2752469 30.6024129,48.0885888 30.6028452,48.1484734 L30.6037097,48.2573545 L32.7128797,48.2573545 L34.8220584,48.2573545 L34.9153822,47.712949 C34.9667168,47.4135259 35.0493034,46.8745645 35.0989176,46.5152568 C35.1485232,46.1559492 35.2681194,45.3916038 35.3646765,44.8167116 C35.4612422,44.2418193 35.6541749,43.1051006 35.7934128,42.2906699 C35.9326507,41.4762392 36.1657138,40.0847387 36.3113318,39.1984465 C36.4569412,38.3121543 36.6729623,37.0186468 36.7913716,36.3239853 C36.90978,35.6293239 37.1207705,34.4534079 37.2602401,33.7108388 C37.3997088,32.9682696 37.6320164,31.7139593 37.7764794,30.9234825 C37.9209416,30.1330057 38.1373655,28.9374911 38.2574217,28.2667835 C38.3774787,27.5960759 38.5963812,26.3809628 38.7438734,25.5665321 C38.8913657,24.7521014 39.0776087,23.8015694 39.1577462,23.4542386 L39.3034515,22.8227282 L37.1678949,22.8227282 L35.0323417,22.8227282 L34.9742553,23.2364764 C34.9423117,23.4640379 34.8391411,24.1009924 34.744996,24.6519308 C34.6508423,25.2028692 34.4795916,26.1827991 34.3644216,26.8295529 C34.2492516,27.4763067 34.0387868,28.7110184 33.8967219,29.5733568 C33.7546484,30.4356951 33.5736028,31.5772221 33.4943878,32.1100862 L33.3503518,33.0789364 L30.2154411,33.1428627 L27.0805217,33.206789 L24.4547294,33.1440038 C23.0105401,33.1094754 21.8209317,33.0743634 21.8111454,33.0659752 C21.8013592,33.0576131 21.8505498,32.7190974 21.920454,32.3137548 C21.9903496,31.9084123 22.1225937,31.2043957 22.2143268,30.7492727 C22.3060599,30.2941497 22.479956,29.3926141 22.6007626,28.7458604 C22.7215605,28.0991066 22.8584037,27.295564 22.9048452,26.9602102 C22.9512866,26.6248564 23.0486218,26.0662964 23.1211455,25.7189656 C23.1936606,25.3716349 23.3312905,24.6400148 23.4269831,24.093153 C23.5226756,23.5462824 23.6246273,23.0367188 23.6535451,22.9607895 L23.7061246,22.8227282 L21.587808,22.8227282 L19.4694914,22.8227282 L19.3338153,23.584896 C19.2591822,24.0040882 19.1596858,24.6018455 19.1126997,24.9132455 C19.0657136,25.2246454 18.9079319,26.224174 18.7620719,27.13442 C18.6162205,28.0446661 18.400897,29.3969694 18.2835917,30.1395385 C18.1662778,30.8821077 17.9526402,32.234411 17.8088463,33.144657 C17.6650524,34.0549031 17.4277877,35.4660022 17.2815991,36.2804329 C17.1354106,37.0948636 16.9237613,38.2511809 16.8112713,38.850027 C16.6987727,39.4488731 16.4844003,40.5855918 16.3348747,41.3760686 C16.1853577,42.1665455 15.9672247,43.2836656 15.8501441,43.8585578 C15.7330549,44.4334501 15.6036206,45.0998024 15.5624958,45.3393409 C15.5213798,45.5788793 15.3875623,46.2697517 15.2651391,46.8746167 C15.1427073,47.4794818 15.0425365,48.0380418 15.0425365,48.1158613 L15.0425365,48.2573545 L17.1430701,48.2573545 L17.143001,48.2573545 Z M40.3964899,48.2573545 L42.256019,48.2573545 L42.3084939,48.119572 C42.3373555,48.0437908 42.3609687,47.8450174 42.3609687,47.6778457 C42.3609687,47.510674 42.4779006,46.6417418 42.620817,45.7468872 C42.7637334,44.8520239 42.9998725,43.3947243 43.14557,42.5084321 C43.2912675,41.6221399 43.5064353,40.3286324 43.6237208,39.6339709 C43.7410062,38.9393095 43.9495873,37.7829921 44.0872354,37.0643768 C44.2248835,36.3457615 44.4361886,35.2286414 44.5568024,34.5818876 C44.6774171,33.9351339 44.9146057,32.7046728 45.0838896,31.8475259 C45.2531736,30.990379 45.4127906,30.254665 45.4385953,30.2125934 L45.4855131,30.1361066 L43.6050413,30.1595988 L41.7245695,30.183091 L41.5679566,31.3154545 C41.4818204,31.9382544 41.2934982,33.1729661 41.1494631,34.0592583 C41.0054289,34.9455505 40.7875621,36.2978539 40.665317,37.0643768 C40.543071,37.8308998 40.3298829,39.0656116 40.1915648,39.8081807 C40.0532476,40.5507498 39.8412846,41.6874686 39.720535,42.3342224 C39.5997864,42.9809761 39.3831178,44.1176949 39.239049,44.860264 C39.0949802,45.6028332 38.901662,46.5827631 38.8094526,47.0378861 C38.7172422,47.4930091 38.6182101,47.9535762 38.5893795,48.0613685 L38.5369609,48.2573545 L40.3964899,48.2573545 Z M83.8877107,48.2573545 L85.7334595,48.2573545 L85.7889005,47.4704577 C85.8193831,47.0376684 85.9238418,46.1655307 86.0210127,45.532374 C86.1181922,44.8992173 86.3171505,43.6364404 86.4631489,42.7261943 C86.6091559,41.8159483 86.8804995,40.3008634 87.0661357,39.3593467 C87.2517718,38.4178213 87.4616229,37.4819664 87.5324695,37.2796479 C87.6033074,37.0773381 87.6612728,36.8581125 87.6612728,36.7924789 C87.6612728,36.7268367 87.8000438,36.3691928 87.9696606,35.9977078 C88.1392688,35.6262229 88.4553594,35.0573758 88.6720833,34.7336156 L89.0661182,34.1449434 L89.5935814,33.6529228 L90.121036,33.1608934 L90.7714585,32.8479081 L91.4218896,32.5349228 L92.4160757,32.5401491 L93.4102617,32.5453754 L93.8990468,32.6925478 C94.1678834,32.7735031 94.4110267,32.839729 94.4393653,32.839729 C94.4677126,32.839729 94.4908987,32.7471278 94.4908987,32.6339437 C94.4908987,32.5207683 94.5881561,31.9470171 94.7070261,31.3589459 C94.8258962,30.7708834 94.9231535,30.264926 94.9231535,30.2346048 C94.9231535,30.2042836 94.6411073,30.0930594 94.2963841,29.9874447 C93.9516609,29.88183 93.4750999,29.7712068 93.2373598,29.741626 L92.805105,29.6878387 L92.2431737,29.7879832 C91.9341115,29.8430596 91.4745555,29.9646493 91.2219372,30.0581826 C90.9693275,30.1517158 90.5522275,30.363851 90.2950532,30.5296116 C90.0378789,30.6953635 89.6378357,31.0183745 89.4060693,31.2473994 C89.1743029,31.4764243 88.7844782,31.9381934 88.5397874,32.2735472 C88.295088,32.608901 88.0391931,32.9616758 87.971113,33.0574912 L87.8473412,33.231701 L87.922493,32.8832814 C87.9638338,32.6916507 88.0789606,32.0644955 88.1783446,31.4896033 C88.2777286,30.914711 88.3797321,30.3757495 88.4050104,30.2919111 L88.450985,30.1394775 L86.8025899,30.1394775 L85.1541949,30.1394775 L85.1541949,30.3494439 C85.1541949,30.4649275 85.0569047,31.1606778 84.9379948,31.8955556 C84.819085,32.6304421 84.6230038,33.8588561 84.5022586,34.6253791 C84.3815134,35.3919021 84.1672153,36.7246068 84.0260401,37.5869452 C83.8848656,38.4492835 83.670507,39.6839953 83.5496883,40.330749 C83.4288697,40.9775028 83.2143338,42.1142216 83.0729415,42.8567907 C82.9315493,43.5993598 82.6967917,44.814473 82.5512567,45.5570421 C82.4057225,46.2996113 82.2315939,47.1765571 82.1643048,47.5058136 C82.0970148,47.83507 82.0419602,48.1388483 82.0419602,48.1808764 L82.0419602,48.2573545 L83.8877107,48.2572935 L83.8877107,48.2573545 Z M127.702747,48.2573545 L129.589989,48.2573545 L129.589989,47.6754329 L129.589989,47.0935026 L129.807465,45.6502443 C129.927087,44.8564401 130.12442,43.5994208 130.245996,42.8568517 C130.367572,42.1142825 130.519112,41.1735498 130.58274,40.7663344 C130.646377,40.3591191 130.815008,39.4771821 130.957488,38.8064745 C131.099968,38.1357669 131.277927,37.4106188 131.352966,37.1950342 C131.427997,36.9794496 131.489957,36.7532643 131.490648,36.6924041 C131.491513,36.631544 131.652216,36.2401556 131.848149,35.8226619 L132.204396,35.0635776 L132.674369,34.4344104 L133.144343,33.8052431 L133.658691,33.4156665 C133.941585,33.2014059 134.396481,32.9170607 134.669562,32.7837989 L135.166076,32.5414993 L136.246713,32.5489903 L137.32735,32.5564813 L137.75275,32.6941244 L138.178149,32.8317589 L138.249843,32.7871089 L138.321536,32.7424677 L138.325167,32.464516 C138.327156,32.3116469 138.419684,31.7428259 138.5308,31.2004673 L138.732836,30.2143616 L138.505582,30.124722 C138.3806,30.0754206 138.083822,29.9733685 137.846082,29.8979357 L137.413827,29.7607891 L136.635769,29.7627925 L135.85771,29.7647959 L135.223627,29.98957 L134.589543,30.2143355 L134.113441,30.5035934 L133.637338,30.7928513 L133.018349,31.4461379 L132.399369,32.0994246 L132.066801,32.6062095 C131.883888,32.8849364 131.722847,33.100521 131.708937,33.0852864 C131.695018,33.070043 131.794437,32.4892189 131.929862,31.7945575 C132.065288,31.099896 132.177769,30.4433429 132.179818,30.3355506 L132.183535,30.1395734 L130.584193,30.1395734 L128.98485,30.1395734 L128.98485,30.1950766 C128.98485,30.2255981 128.905116,30.7841582 128.80766,31.4363212 C128.710212,32.0884755 128.514539,33.3472107 128.372846,34.2335029 C128.231144,35.1197951 127.998643,36.5504929 127.856181,37.4128312 C127.713709,38.2751696 127.498939,39.5098813 127.378911,40.1566351 C127.258882,40.8033889 127.045694,41.9401076 126.905168,42.6826767 C126.764642,43.4252459 126.53374,44.6207604 126.392056,45.3393757 C126.250371,46.057991 126.062686,47.0085231 125.974982,47.4516692 L125.815514,48.2573893 L127.702765,48.2573893 L127.702747,48.2573545 Z M44.0529748,27.0018464 L44.577893,27.0037627 L44.9951321,26.8605187 L45.4123704,26.7172747 L45.7816466,26.3398667 L46.1509218,25.9624499 L46.3454305,25.4596283 L46.5399391,24.9567979 L46.5468897,24.2164064 L46.5538404,23.4760149 L46.3809385,23.186905 L46.2080365,22.8978039 L45.9070134,22.7100145 L45.6059903,22.5222251 L44.9560528,22.5222251 L44.3061154,22.5222164 L43.8636369,22.7218172 L43.4211584,22.9214181 L43.1643091,23.1987165 L42.907459,23.4760149 L42.7057499,23.9550917 L42.5040399,24.4341686 L42.4659107,25.1804136 L42.4277815,25.9266585 L42.6155746,26.2975511 L42.8033668,26.668435 L43.1657122,26.8341869 L43.5280567,26.9999388 L44.0529748,27.0018551 L44.0529748,27.0018464 Z" id="path2997"></path>
            </g>
        </g>
    </g>
</svg>