<?xml version="1.0" encoding="UTF-8"?>
<svg width="150px" height="117px" viewBox="0 0 150 117" version="1.1" xmlns="http://www.w3.org/2000/svg" xmlns:xlink="http://www.w3.org/1999/xlink">
    <!-- Generator: Sketch 48.2 (47327) - http://www.bohemiancoding.com/sketch -->
    <title>Group 4</title>
    <desc>Created with Sketch.</desc>
    <defs></defs>
    <g id="Page-1" stroke="none" stroke-width="1" fill="none" fill-rule="evenodd">
        <g id="SVG" transform="translate(-707.000000, 0.000000)" fill-rule="nonzero">
            <g id="brands-sprite">
                <g id="Artboard" transform="translate(707.000000, 0.000000)">
                    <g id="Group-2">
                        <g id="Group-4">
                            <path d="M27.4358974,116.179487 L27.4358974,108.487179 C27.5265899,107.178455 27.0497588,105.893986 26.1270527,104.961464 C25.2043467,104.028942 23.9249952,103.538546 22.6153846,103.615385 C20.8895309,103.502241 19.238884,104.33739 18.3076923,105.794872 C17.4587127,104.380845 15.904203,103.544558 14.2564103,103.615385 C12.8216889,103.542855 11.4558481,104.235532 10.6666667,105.435897 L10.6666667,103.923077 L8,103.923077 L8,116.179487 L10.6923077,116.179487 L10.6923077,109.435897 C10.5763569,108.587295 10.8452278,107.731227 11.4255477,107.101307 C12.0058677,106.471387 12.8370631,106.133366 13.6923077,106.179487 C15.4615385,106.179487 16.3589744,107.333333 16.3589744,109.410256 L16.3589744,116.230769 L19.0512821,116.230769 L19.0512821,109.435897 C18.9400892,108.58826 19.2106041,107.734966 19.7898482,107.106214 C20.3690922,106.477462 21.1973886,106.138029 22.0512821,106.179487 C23.8717949,106.179487 24.7435897,107.333333 24.7435897,109.410256 L24.7435897,116.230769 L27.4358974,116.179487 Z M67.2692308,103.923077 L62.8846154,103.923077 L62.8846154,100.205128 L60.1923077,100.205128 L60.1923077,103.923077 L57.7564103,103.923077 L57.7564103,106.358974 L60.2435897,106.358974 L60.2435897,112 C60.2435897,114.846154 61.3461538,116.538462 64.5,116.538462 C65.6782802,116.54242 66.8337278,116.213561 67.8333333,115.589744 L67.0641026,113.307692 C66.3489785,113.734243 65.5373472,113.972439 64.7051282,114 C63.4230769,114 62.9358974,113.179487 62.9358974,111.948718 L62.9358974,106.358974 L67.2948718,106.358974 L67.2692308,103.923077 Z M90.0128205,103.615385 C88.6883556,103.576433 87.4486961,104.265132 86.7820513,105.410256 L86.7820513,103.923077 L84.1410256,103.923077 L84.1410256,116.179487 L86.8076923,116.179487 L86.8076923,109.307692 C86.8076923,107.282051 87.6794872,106.153846 89.3717949,106.153846 C89.9421592,106.146044 90.5084808,106.250596 91.0384615,106.461538 L91.8589744,103.897436 C91.2499641,103.679569 90.6083397,103.566851 89.9615385,103.564103 L90.0128205,103.615385 Z M55.6282051,104.897436 C54.11875,103.999971 52.3832691,103.554975 50.6282051,103.615385 C47.525641,103.615385 45.5,105.102564 45.5,107.538462 C45.5,109.538462 46.9871795,110.769231 49.7307692,111.153846 L51.0128205,111.333333 C52.474359,111.538462 53.1666667,111.923077 53.1666667,112.615385 C53.1666667,113.564103 52.1923077,114.102564 50.3717949,114.102564 C48.9074391,114.144951 47.4714144,113.693371 46.2948718,112.820513 L45.0128205,114.897436 C46.5661716,115.982039 48.4266945,116.539297 50.3205128,116.487179 C53.8589744,116.487179 55.9102564,114.820513 55.9102564,112.487179 C55.9102564,110.153846 54.2948718,109.205128 51.6282051,108.820513 L50.3461538,108.641026 C49.1923077,108.487179 48.2692308,108.25641 48.2692308,107.435897 C48.2692308,106.615385 49.1410256,106 50.6025641,106 C51.9534303,106.015692 53.277687,106.377656 54.4487179,107.051282 L55.6282051,104.897436 Z M127.051282,103.615385 C125.726817,103.576433 124.487158,104.265132 123.820513,105.410256 L123.820513,103.923077 L121.179487,103.923077 L121.179487,116.179487 L123.846154,116.179487 L123.846154,109.307692 C123.846154,107.282051 124.717949,106.153846 126.410256,106.153846 C126.980621,106.146044 127.546942,106.250596 128.076923,106.461538 L128.897436,103.897436 C128.288426,103.679569 127.646801,103.566851 127,103.564103 L127.051282,103.615385 Z M92.6923077,110.025641 C92.6281766,111.767224 93.3009037,113.455208 94.5453638,114.675267 C95.7898239,115.895326 97.4907972,116.534499 99.2307692,116.435897 C100.831896,116.517359 102.405428,115.995897 103.641026,114.974359 L102.358974,112.820513 C101.437142,113.523476 100.313055,113.910162 99.1538462,113.923077 C97.1098727,113.757697 95.5353697,112.050653 95.5353697,110 C95.5353697,107.949347 97.1098727,106.242303 99.1538462,106.076923 C100.313055,106.089838 101.437142,106.476524 102.358974,107.179487 L103.641026,105.025641 C102.405428,104.004103 100.831896,103.482641 99.2307692,103.564103 C97.4907972,103.465501 95.7898239,104.104674 94.5453638,105.324733 C93.3009037,106.544792 92.6281766,108.232776 92.6923077,109.974359 L92.6923077,110.025641 Z M117.666667,110.025641 L117.666667,103.923077 L115,103.923077 L115,105.410256 C114.081286,104.228141 112.64997,103.560193 111.153846,103.615385 C107.613559,103.615385 104.74359,106.485354 104.74359,110.025641 C104.74359,113.565928 107.613559,116.435897 111.153846,116.435897 C112.64997,116.491089 114.081286,115.823141 115,114.641026 L115,116.128205 L117.666667,116.128205 L117.666667,110.025641 Z M107.74359,110.025641 C107.862173,108.013678 109.567233,106.465524 111.58127,106.541119 C113.595307,106.616714 115.179516,108.288327 115.146944,110.303519 C115.114371,112.318711 113.476966,113.938252 111.461538,113.948718 C110.435307,113.961703 109.450288,113.545485 108.744311,112.800557 C108.038334,112.05563 107.675563,111.049698 107.74359,110.025641 Z M75.5641026,103.615385 C72.0238157,103.664949 69.1940257,106.575098 69.2435897,110.115385 C69.2931538,113.655671 72.2033029,116.485461 75.7435897,116.435897 C77.5881274,116.530576 79.4020583,115.936593 80.8333333,114.769231 L79.5512821,112.794872 C78.5389256,113.606768 77.2847459,114.057911 75.9871795,114.076923 C74.1543159,114.234551 72.5289491,112.904706 72.3205128,111.076923 L81.4230769,111.076923 C81.4230769,110.74359 81.4230769,110.410256 81.4230769,110.051282 C81.4230769,106.205128 79.0384615,103.641026 75.6025641,103.641026 L75.5641026,103.615385 Z M75.5641026,106 C76.3700039,105.982818 77.1497051,106.286577 77.7315884,106.844415 C78.3134717,107.402254 78.6498438,108.16845 78.6666667,108.974359 L72.2564103,108.974359 C72.3529851,107.262594 73.799331,105.941522 75.5128205,106 L75.5641026,106 Z M142.371795,110.051282 L142.371795,99 L139.807692,99 L139.807692,105.410256 C138.888979,104.228141 137.457662,103.560193 135.961538,103.615385 C132.421252,103.615385 129.551282,106.485354 129.551282,110.025641 C129.551282,113.565928 132.421252,116.435897 135.961538,116.435897 C137.457662,116.491089 138.888979,115.823141 139.807692,114.641026 L139.807692,116.128205 L142.371795,116.128205 L142.371795,110.051282 Z M146.820513,114.397436 C146.987196,114.395394 147.152678,114.425877 147.307692,114.487179 C147.454927,114.547262 147.589698,114.634211 147.705128,114.74359 C147.817781,114.85413 147.909055,114.984521 147.974359,115.128205 C148.105591,115.43083 148.105591,115.774298 147.974359,116.076923 C147.909055,116.220607 147.817781,116.350998 147.705128,116.461538 C147.589698,116.570917 147.454927,116.657867 147.307692,116.717949 C147.154208,116.785673 146.988275,116.820607 146.820513,116.820513 C146.324423,116.816774 145.875016,116.527156 145.666667,116.076923 C145.536954,115.773985 145.536954,115.431143 145.666667,115.128205 C145.731971,114.984521 145.823245,114.85413 145.935897,114.74359 C146.051327,114.634211 146.186099,114.547262 146.333333,114.487179 C146.50032,114.420754 146.679407,114.390178 146.858974,114.397436 L146.820513,114.397436 Z M146.820513,116.564103 C146.948474,116.56488 147.075161,116.538669 147.192308,116.487179 C147.302611,116.437933 147.402647,116.368343 147.487179,116.282051 C147.819612,115.91935 147.819612,115.362701 147.487179,115 C147.402848,114.913471 147.302764,114.843847 147.192308,114.794872 C147.075045,114.743745 146.948436,114.71755 146.820513,114.717949 C146.6927,114.718624 146.566305,114.744775 146.448718,114.794872 C146.333532,114.842103 146.228926,114.91184 146.141026,115 C145.808594,115.362701 145.808594,115.91935 146.141026,116.282051 C146.229142,116.369948 146.333692,116.439648 146.448718,116.487179 C146.578064,116.542959 146.718207,116.569236 146.858974,116.564103 L146.820513,116.564103 Z M146.897436,115.038462 C147.017117,115.032658 147.135052,115.068945 147.230769,115.141026 C147.310388,115.206918 147.353348,115.307159 147.346154,115.410256 C147.349876,115.496353 147.317321,115.580064 147.25641,115.641026 C147.1821,115.70852 147.087303,115.749148 146.987179,115.75641 L147.358974,116.179487 L147.064103,116.179487 L146.717949,115.75641 L146.602564,115.75641 L146.602564,116.179487 L146.358974,116.179487 L146.358974,115.051282 L146.897436,115.038462 Z M146.615385,115.25641 L146.615385,115.564103 L146.897436,115.564103 C146.947626,115.579066 147.001092,115.579066 147.051282,115.564103 C147.069568,115.527814 147.069568,115.485006 147.051282,115.448718 C147.069568,115.41243 147.069568,115.369621 147.051282,115.333333 C147.001092,115.318369 146.947626,115.318369 146.897436,115.333333 L146.615385,115.25641 Z M132.512821,110.051282 C132.631404,108.039319 134.336464,106.491165 136.350501,106.56676 C138.364537,106.642355 139.948746,108.313968 139.916174,110.32916 C139.883602,112.344352 138.246197,113.963894 136.230769,113.974359 C135.204537,113.987344 134.219518,113.571126 133.513541,112.826198 C132.807564,112.081271 132.444794,111.075339 132.512821,110.051282 Z M42.474359,110.051282 L42.474359,103.923077 L39.8076923,103.923077 L39.8076923,105.410256 C38.8889787,104.228141 37.4576619,103.560193 35.9615385,103.615385 C32.4212516,103.615385 29.5512821,106.485354 29.5512821,110.025641 C29.5512821,113.565928 32.4212516,116.435897 35.9615385,116.435897 C37.4576619,116.491089 38.8889787,115.823141 39.8076923,114.641026 L39.8076923,116.128205 L42.474359,116.128205 L42.474359,110.051282 Z M32.5512821,110.051282 C32.6698654,108.039319 34.3749255,106.491165 36.3889622,106.56676 C38.4029989,106.642355 39.987208,108.313968 39.9546358,110.32916 C39.9220636,112.344352 38.2846585,113.963894 36.2692308,113.974359 C35.2385763,113.994593 34.2466999,113.581547 33.5350368,112.835763 C32.8233737,112.08998 32.4571978,111.07986 32.525641,110.051282 L32.5512821,110.051282 Z" id="Shape" fill="#231F20"></path>
                            <rect id="Rectangle-path" fill="#FF5F00" x="54.6794872" y="10.0641026" width="40.3846154" height="72.5769231"></rect>
                            <path d="M57.2435897,46.3589744 C57.2284906,32.1942208 63.7292869,18.8096721 74.8717949,10.0641026 C55.9484492,-4.80762592 28.7737658,-2.64143006 12.4453819,15.0403459 C-3.88300196,32.7221219 -3.88300196,59.9830063 12.4453819,77.6647823 C28.7737658,95.3465583 55.9484492,97.5127541 74.8717949,82.6410256 C63.7328317,73.8982324 57.2324325,60.5192289 57.2435897,46.3589744 Z" id="_Path_" fill="#EB001B"></path>
                            <path d="M149.551282,46.3589744 C149.55087,64.0299748 139.460796,80.1495517 123.566353,87.8716588 C107.67191,95.5937659 88.7635766,93.5626857 74.8717949,82.6410256 C86.0058978,73.89081 92.5067863,60.5135853 92.5067863,46.3525641 C92.5067863,32.1915429 86.0058978,18.8143182 74.8717949,10.0641026 C88.7635766,-0.857557468 107.67191,-2.88863772 123.566353,4.83346938 C139.460796,12.5555765 149.55087,28.6751534 149.551282,46.3461538 L149.551282,46.3589744 Z" id="Shape" fill="#F79E1B"></path>
                            <path d="M145.141026,74.9487179 L145.141026,73.4615385 L145.74359,73.4615385 L145.74359,73.1538462 L144.217949,73.1538462 L144.217949,73.4615385 L144.871795,73.4615385 L144.871795,74.9487179 L145.141026,74.9487179 Z M148.102564,74.9487179 L148.102564,73.1538462 L147.641026,73.1538462 L147.102564,74.4358974 L146.564103,73.1538462 L146.153846,73.1538462 L146.153846,74.9487179 L146.487179,74.9487179 L146.487179,73.6025641 L146.987179,74.7692308 L147.333333,74.7692308 L147.833333,73.6025641 L147.833333,74.9615385 L148.102564,74.9487179 Z" id="Shape" fill="#F79E1B"></path>
                        </g>
                    </g>
                </g>
            </g>
        </g>
    </g>
</svg>