<svg xmlns="http://www.w3.org/2000/svg" version="1.1" x="0" y="0" viewBox="0 0 240 243" xml:space="preserve"><style type="text/css">
	.st0{fill:#1A5493;}
	.st1{fill:#FFF212;}
</style><path class="st0" d="M200 243H40c-22 0-40-18-40-40V40C0 18 18 0 40 0h160c22 0 40 18 40 40v163C240 225 222 243 200 243z"/><path class="st1" d="M20 202.5h18.7v-81H20V202.5zM85.6 188.3l-0.4 0.1 -0.5 0.1 -0.5 0.1 -0.6 0 -0.6 0 -0.7 0 -0.6 0 -0.6 0 -0.5-0.1 -0.5-0.1 -0.5-0.1 -0.5-0.1 -0.4-0.2 -0.4-0.2 -0.4-0.2 -0.4-0.2 -0.3-0.3 -0.3-0.3 -0.3-0.3 -0.3-0.3 -0.3-0.3 -0.2-0.4 -0.2-0.4 -0.2-0.4 -0.2-0.4 -0.2-0.4 -0.1-0.5 -0.1-0.5 -0.1-0.5 -0.1-0.5 -0.1-0.5 -0.1-0.6 -0.1-0.6 0-0.6 0-0.6 0-0.6 0-0.7v-0.7 -21.5h11.6v-13.8H74.4v-20.3H56.2v20.3h-8.5v13.8h8.5v24.7l0 0.8 0 0.7 0 0.7 0 0.7 0 0.7 0.1 0.7 0.1 0.7 0.1 0.7 0.1 0.7 0.1 0.7 0.1 0.6 0.1 0.6 0.1 0.6 0.1 0.6 0.1 0.6 0.2 0.6 0.2 0.6 0.2 0.5 0.2 0.5 0.2 0.5 0.2 0.5 0.2 0.5 0.2 0.5 0.2 0.5 0.2 0.5 0.3 0.4 0.3 0.4 0.3 0.4 0.3 0.4 0.3 0.4L61 198l0.3 0.3 0.3 0.3 0.3 0.3 0.3 0.3 0.3 0.3 0.3 0.3 0.3 0.3 0.4 0.3 0.4 0.3 0.4 0.3 0.4 0.2 0.4 0.2 0.4 0.2 0.4 0.2 0.4 0.2 0.5 0.2 0.5 0.2 0.5 0.2 0.5 0.2 0.5 0.2 0.5 0.2 0.5 0.2 0.5 0.1 0.5 0.1 0.5 0.1 0.5 0.1 0.6 0.1 0.6 0.1 0.6 0.1 0.6 0.1 0.6 0 0.6 0 0.6 0 1 0 0.9 0 0.9 0 0.8-0.1 0.7-0.1 0.7-0.1 0.6-0.1 0.6-0.1 0.6-0.1 0.5-0.1 0.5-0.2 0.5-0.2 0.9-0.3 0.9-0.3v-14.1l-0.2 0.1L85.6 188.3zM150.1 163.9l-0.1-1.3 -0.1-1.3 -0.2-1.3 -0.3-1.3 -0.3-1.2 -0.3-1.2 -0.4-1.2 -0.4-1.1 -0.5-1.1 -0.6-1.1 -0.6-1 -0.7-1 -0.7-1 -0.8-0.9 -0.8-0.9 -0.9-0.8 -1-0.8 -1-0.7 -1.1-0.7 -1.2-0.6 -1.2-0.6 -1.3-0.5 -1.4-0.5 -1.5-0.4 -1.5-0.4 -1.6-0.3 -1.7-0.2 -1.7-0.2 -1.8-0.1 -1.9 0h-1.1l-1.1 0 -1 0 -1 0.1 -1 0.1 -1 0.1 -1 0.1 -0.9 0.1 -0.9 0.1 -0.9 0.1 -0.9 0.2 -0.9 0.2 -0.8 0.2 -0.8 0.2 -0.8 0.2 -0.8 0.2 -0.8 0.2 -0.7 0.2 -0.7 0.2 -0.7 0.2 -0.7 0.2 -0.7 0.2 -0.6 0.2 -0.6 0.3 -0.6 0.2 -0.6 0.3 -0.6 0.3 -0.5 0.3 -0.5 0.3 -0.5 0.3 -0.5 0.3 -0.5 0.3 3.5 11.9 0.4-0.2 0.4-0.2 0.4-0.2 0.5-0.2 0.5-0.2 0.5-0.2 0.5-0.2 0.5-0.2 0.5-0.2 0.5-0.2 0.5-0.2 0.6-0.2 0.6-0.2 0.6-0.2 0.6-0.2 0.6-0.2 0.6-0.2 0.6-0.2 0.6-0.2 0.6-0.1 0.6-0.1 0.6-0.1 0.6-0.1 0.6-0.1 0.6-0.1 0.6-0.1 0.6-0.1 0.6 0 0.6 0 0.6 0 0.6 0h0.6l1 0 1 0 0.9 0.1 0.8 0.1 0.8 0.1 0.8 0.2 0.7 0.2 0.7 0.2 0.7 0.2 0.6 0.2 0.6 0.3 0.5 0.3 0.5 0.3 0.5 0.3 0.4 0.3 0.4 0.3 0.3 0.3 0.3 0.4 0.3 0.3 0.3 0.4 0.2 0.4 0.2 0.4 0.2 0.3 0.2 0.4 0.1 0.4 0.1 0.3 0.1 0.3 0.1 0.3 0.1 0.3 0 0.3 0 0.3v0.3 0.7l-2.2 0 -2.2 0.1 -2.1 0.1 -2.1 0.2 -2 0.2 -2 0.3 -1.9 0.3 -1.8 0.4 -1.8 0.4 -1.7 0.4 -1.7 0.5 -1.6 0.5 -1.5 0.6 -1.4 0.6 -1.4 0.7 -1.3 0.7 -1.2 0.8 -1.2 0.8 -1.1 0.9 -1 0.9 -0.9 0.9 -0.9 1 -0.8 1 -0.7 1.1 -0.6 1.1 -0.6 1.2 -0.5 1.2 -0.4 1.3 -0.3 1.3 -0.2 1.4 -0.1 1.4 0 1.4 0 0.9 0.1 0.9 0.1 0.9 0.2 0.9 0.2 0.9 0.2 0.9 0.3 0.8 0.3 0.8L95 193l0.4 0.8 0.4 0.8 0.5 0.8 0.5 0.7 0.6 0.7 0.6 0.7 0.6 0.7 0.7 0.6 0.7 0.6 0.8 0.6 0.8 0.5 0.8 0.5 0.9 0.5 0.9 0.4 0.9 0.4 1 0.4 1 0.3 1.1 0.3 1.1 0.2 1.1 0.2 1.2 0.1 1.2 0.1 1.2 0 0.7 0 0.7 0 0.7 0 0.7-0.1 0.7-0.1 0.7-0.1 0.7-0.1 0.7-0.1 0.7-0.2 0.7-0.2 0.7-0.2 0.7-0.2 0.6-0.2 0.6-0.2 0.6-0.2 0.6-0.2 0.6-0.3 0.6-0.3 0.6-0.3 0.6-0.3 0.5-0.3 0.5-0.3 0.5-0.3 0.5-0.3 0.5-0.4 0.5-0.4 0.5-0.4 0.4-0.4 0.4-0.4 0.4-0.4 0.4-0.4 0.4-0.5h0.2l2 6.3h15.2v-35.9l0-1.4L150.1 163.9zM133 180.1v0.4l0 0.4 0 0.4 0 0.4 0 0.4 0 0.4 -0.1 0.4 -0.1 0.4 0 0.1 -0.1 0.2 0 0.2 0 0.1 -0.1 0.2 -0.1 0.2 -0.2 0.4 -0.2 0.4 -0.2 0.4 -0.2 0.4 -0.2 0.3 -0.2 0.4 -0.3 0.3 -0.3 0.3 -0.3 0.3 -0.3 0.3 -0.3 0.3 -0.3 0.3 -0.3 0.3 -0.3 0.3 -0.4 0.3 -0.4 0.3 -0.4 0.3 -0.4 0.3 -0.4 0.2 -0.4 0.2 -0.4 0.2 -0.5 0.2 -0.5 0.2 -0.5 0.2 -0.5 0.1 -0.5 0.1 -0.5 0.1 -0.5 0.1 -0.5 0.1 -0.5 0 -0.5 0h-0.5H120l-0.5 0 -0.5 0 -0.5-0.1 -0.4-0.1 -0.4-0.1 -0.4-0.1 -0.4-0.1 -0.4-0.1 -0.4-0.2 -0.4-0.2 -0.3-0.2 -0.3-0.2 -0.3-0.2 -0.3-0.2 -0.3-0.2 -0.3-0.3 -0.3-0.3 -0.3-0.3 -0.2-0.3 -0.2-0.3 -0.2-0.3 -0.2-0.3 -0.2-0.3 -0.1-0.4 -0.1-0.4 -0.1-0.4 -0.1-0.4 -0.1-0.4 0-0.4 0-0.5 0-0.5 0-0.5 0-0.5 0.1-0.5 0.1-0.5 0.1-0.5 0.2-0.5 0.2-0.4 0.2-0.4 0.2-0.4 0.2-0.4 0.3-0.4 0.3-0.4 0.3-0.3 0.3-0.3 0.4-0.3 0.4-0.3 0.4-0.3 0.4-0.3 0.5-0.3 0.5-0.3 0.5-0.2 0.5-0.2 0.5-0.2 0.5-0.2 0.6-0.2 0.6-0.2 0.6-0.2 0.6-0.2 0.6-0.1 0.7-0.1 0.6-0.1 0.7-0.1 0.6-0.1 0.7-0.1 0.7-0.1 0.7-0.1 0.7 0 0.7-0.1 0.7 0 0.7 0 0.4 0 0.5 0 0.5 0h0.5 0.5 0.5 0.5 0.5V180.1zM212.5 121.4h-17.6l-11.3 16.4h13L212.5 121.4zM201.7 141.8v35.6 0.5l0 0.5 0 0.5 -0.1 0.5 -0.1 0.5 -0.1 0.5 -0.1 0.5 -0.2 0.4 -0.1 0.3 -0.2 0.3 -0.2 0.3 -0.2 0.3 -0.2 0.3 -0.2 0.3 -0.2 0.3 -0.2 0.3 -0.3 0.3 -0.3 0.3 -0.3 0.3 -0.3 0.3 -0.3 0.3 -0.3 0.3 -0.3 0.3 -0.3 0.3 -0.4 0.3 -0.4 0.3 -0.4 0.2 -0.4 0.2 -0.4 0.2 -0.4 0.2 -0.4 0.2 -0.5 0.2 -0.5 0.2 -0.5 0.1 -0.5 0.1 -0.5 0.1 -0.5 0.1 -0.5 0 -0.5 0h-0.6l-0.7 0 -0.7 0 -0.7-0.1 -0.6-0.1 -0.6-0.1 -0.6-0.2 -0.6-0.2 -0.5-0.2 -0.5-0.3 -0.5-0.3 -0.5-0.3 -0.4-0.4 -0.4-0.4 -0.4-0.4 -0.4-0.4 -0.3-0.5 -0.3-0.5 -0.3-0.5 -0.3-0.6 -0.3-0.6 -0.2-0.6 -0.2-0.6 -0.2-0.7 -0.2-0.7 -0.1-0.7 -0.1-0.7 -0.1-0.8 -0.1-0.8 -0.1-0.8 0-0.8 0-0.9 0-0.9v-32.1h-18.2v35.5 0.9l0 0.9 0 0.8 0 0.8 0.1 0.8 0.1 0.8 0.1 0.8 0.1 0.8 0.1 0.7 0.1 0.7 0.1 0.7 0.2 0.7 0.2 0.7 0.2 0.7 0.2 0.7 0.2 0.6 0.2 0.6 0.2 0.6 0.2 0.6 0.3 0.6 0.3 0.6 0.3 0.5 0.3 0.5 0.3 0.5 0.3 0.5 0.3 0.5 0.3 0.5 0.3 0.5 0.3 0.5 0.3 0.4 0.3 0.4 0.4 0.4 0.4 0.4 0.4 0.4 0.4 0.4 0.4 0.3 0.4 0.3 0.4 0.3 0.4 0.3 0.4 0.3 0.5 0.3 0.4 0.3 0.5 0.3 0.5 0.3 0.5 0.2 0.5 0.2 0.5 0.2 0.5 0.2 0.5 0.2 0.5 0.2 0.5 0.2 0.5 0.1 0.6 0.1 0.5 0.1 0.6 0.1 0.6 0.1 0.6 0.1 0.6 0.1 0.6 0.1 0.6 0.1 0.6 0 0.6 0 0.6 0h0.6 0.5l0.5 0 0.5 0 0.5 0 0.5 0 0.5 0 0.5 0 0.5-0.1 0.5-0.1 0.5-0.1 0.5-0.1 0.4-0.1 0.4-0.1 0.4-0.1 0.4-0.1 0.4-0.1 0.8-0.3 0.8-0.3 0.7-0.3 0.7-0.3 0.7-0.3 0.7-0.3 0.6-0.4 0.6-0.4 0.6-0.4 0.6-0.4 0.5-0.4 0.5-0.4 0.5-0.4 0.5-0.4 0.4-0.4 0.4-0.4 0.4-0.4 0.4-0.4 0.3-0.4 0.3-0.4 0.3-0.4 0.3-0.4 0.3-0.3 0.2-0.4 2.3 8.6h14.8v-60.7H201.7z"/></svg>