<?xml version="1.0" encoding="UTF-8"?>
<svg width="139px" height="107px" viewBox="0 0 139 107" version="1.1" xmlns="http://www.w3.org/2000/svg" xmlns:xlink="http://www.w3.org/1999/xlink">
    <!-- Generator: Sketch 48.2 (47327) - http://www.bohemiancoding.com/sketch -->
    <title>Group-2</title>
    <desc>Created with Sketch.</desc>
    <defs></defs>
    <g id="Page-1" stroke="none" stroke-width="1" fill="none" fill-rule="evenodd">
        <g id="SVG" transform="translate(-707.000000, -1600.000000)">
            <g id="brands-sprite">
                <g id="Artboard" transform="translate(707.000000, 0.000000)">
                    <g id="Group-2" transform="translate(0.000000, 1600.000000)">
                        <g id="Rectangle-3-Copy-2">
                            <g id="path-1-link" fill="#FFFFFF">
                                <path d="M8,3.94430453e-31 L130.4,-8.8817842e-16 C134.818278,-1.69980292e-15 138.4,3.581722 138.4,8 L138.4,57.4328125 L138.4,86.66875 L112.778125,106.4 L8,106.4 C3.581722,106.4 -3.47095419e-16,102.818278 -8.8817842e-16,98.4 L-1.97215226e-31,8 C-5.41083001e-16,3.581722 3.581722,8.11624501e-16 8,3.94430453e-31 Z" id="path-1"></path>
                            </g>
                            <path d="M112.233446,104.8 L136.8,85.8814463 L136.8,8 C136.8,4.4653776 133.934622,1.6 130.4,1.6 L8,1.6 C4.4653776,1.6 1.6,4.4653776 1.6,8 L1.6,98.4 C1.6,101.934622 4.4653776,104.8 8,104.8 L112.233446,104.8 Z" id="Shape" stroke="#000000" stroke-width="3.2"></path>
                        </g>
                        <path d="M114.4,103.003021 L133.588219,87.1525413 L120.771795,87.209024 C117.248217,87.2245526 114.4,90.0853492 114.4,93.6089619 L114.4,103.003021 Z" id="Rectangle-3-Copy-3" stroke="#000000" stroke-width="3.2"></path>
                        <path d="M12.288,19.2 L12.288,71.18125" id="Line-Copy-15" stroke="#000000" stroke-width="5.376" stroke-linecap="square"></path>
                        <path d="M126.688,19.2 L126.688,71.18125" id="Line-Copy-16" stroke="#000000" stroke-width="5.376" stroke-linecap="square"></path>
                        <path d="M114.8,19.2 L114.8,49.6" id="Line-Copy-20" stroke="#000000" stroke-width="5.376" stroke-linecap="square"></path>
                        <path d="M57.2,19.2 L57.2,49.6" id="Line-Copy-21" stroke="#000000" stroke-width="5.376" stroke-linecap="square"></path>
                        <path d="M44.8,17.6 L44.8,50.8214844" id="Line-Copy-24" stroke="#000000" stroke-width="2.976" stroke-linecap="square"></path>
                        <path d="M68.8,17.6 L68.8,50.8214844" id="Line-Copy-31" stroke="#000000" stroke-width="2.976" stroke-linecap="square"></path>
                        <path d="M79.2,17.6 L79.2,50.8214844" id="Line-Copy-30" stroke="#000000" stroke-width="2.976" stroke-linecap="square"></path>
                        <path d="M35.2,17.6 L35.2,50.8214844" id="Line-Copy-29" stroke="#000000" stroke-width="2.976" stroke-linecap="square"></path>
                        <path d="M90.8,19.2 L90.8,49.6" id="Line-Copy-20" stroke="#000000" stroke-width="5.376" stroke-linecap="square"></path>
                        <path d="M103.2,20.8 L103.2,48.1511719" id="Line-Copy-26" stroke="#000000" stroke-width="8.57600021" stroke-linecap="square"></path>
                        <path d="M24.8,20.8 L24.8,48.046875" id="Line-Copy-23" stroke="#000000" stroke-width="8.57600021" stroke-linecap="square"></path>
                        <g id="BOLETO" transform="translate(19.000000, 48.000000)" fill="#000000" font-family="OpenSans-Bold, Open Sans" font-size="24" font-weight="bold">
                            <text id="BOLET">
                                <tspan x="0.2" y="26">BOLET</tspan>
                            </text>
                            <text id="O">
                                <tspan x="81.617188" y="26">O</tspan>
                            </text>
                        </g>
                    </g>
                </g>
            </g>
        </g>
    </g>
</svg>