<?xml version="1.0" encoding="UTF-8"?>
<svg width="150px" height="99px" viewBox="0 0 150 99" version="1.1" xmlns="http://www.w3.org/2000/svg" xmlns:xlink="http://www.w3.org/1999/xlink">
    <!-- Generator: Sketch 48.2 (47327) - http://www.bohemiancoding.com/sketch -->
    <title>Alelo</title>
    <desc>Created with Sketch.</desc>
    <g id="Page-1" stroke="none" stroke-width="1" fill="none" fill-rule="evenodd">
        <g id="SVG" transform="translate(-707.000000, -1000.000000)">
            <g id="brands-sprite">
                <g id="Artboard" transform="translate(707.000000, 0.000000)">
                    <g id="Alelo" transform="translate(0.000000, 1000.000000)">
                        <g id="Group-3">
                            <g id="Fill-1-Clipped">
                                <g>
                                    <mask id="mask-2" fill="white">
                                        <polygon id="path-1" points="0 98.555595 0 0.632511774 149.986968 0.632511774 149.986968 98.555595"></polygon>
                                    </mask>
                                    <g id="path-2"></g>
                                    <path d="M100.75914,0.632376766 C90.6025792,0.632376766 81.170905,3.69570487 73.3342534,8.93603454 C72.7763348,9.31068132 68.9238462,12.0513407 68.7548416,12.1789231 C62.3571041,16.9669765 58.0620814,17.8148257 52.1754299,16.3277143 C51.8197738,16.2399592 50.1338009,15.6594254 49.6003167,15.4609639 C45.5781448,13.9509011 41.2206787,13.1212779 36.6670588,13.1212779 C16.4136652,13.1212779 -0.000135746606,29.4525024 -0.000135746606,49.5909482 C-0.000135746606,69.7395196 16.4136652,86.0653438 36.6670588,86.0653438 C40.7224887,86.0653438 44.62181,85.4024553 48.2679638,84.1921099 C57.0453394,81.580383 61.8086878,82.2952496 67.289457,86.1618744 C68.3896833,86.9374945 71.0448869,88.6257677 71.5905882,89.0260659 C79.7543891,95.0102889 89.8383258,98.555595 100.75914,98.555595 C127.949864,98.555595 149.986968,76.6377457 149.986968,49.5909482 C149.986968,22.5542763 127.949864,0.632376766 100.75914,0.632376766" id="Fill-1" fill="#008060" fill-rule="nonzero" mask="url(#mask-2)"></path>
                                </g>
                            </g>
                        </g>
                        <path d="M83.3754237,57.6923077 C81.7537697,59.1704147 79.5299826,60.0733135 77.0810798,60.0370449 C75.4019495,60.0147746 73.8446143,59.5477361 72.5199214,58.7676417 L69.2307692,63.6244609 C71.4826103,64.9428586 74.1361015,65.7280433 76.9859702,65.7674934 C81.1454784,65.8279412 84.9320747,64.3072026 87.6923077,61.8002109 L83.3754237,57.6923077 Z" id="Fill-4" fill="#FFFFFF" fill-rule="nonzero"></path>
                        <path d="M68.3775382,52.778345 C68.3288352,52.4424383 68.3128233,52.0894977 68.3128233,51.7202046 C68.3942173,46.8669309 72.3078006,42.9873098 77.0606762,43.0711162 C79.6426004,43.1045025 81.9443158,44.3139031 83.4901346,46.1951173 L68.3775382,52.778345 Z M77.1427373,36.9246355 C69.0847319,36.8067615 62.4411139,43.3899892 62.3096826,51.6193645 C62.2603125,54.7099793 63.1316285,57.5982325 64.6774473,60 L91.1538462,48.4456246 C89.6567304,41.9291694 83.9998478,37.0418281 77.1427373,36.9246355 Z" id="Fill-6" fill="#FFFFFF" fill-rule="nonzero"></path>
                        <path d="M100.150584,30 L100.150584,59.0965787 L105,61.1883682 L102.711853,66.9230769 L97.9113741,64.8491718 C96.8235124,64.368356 96.0973895,63.6206496 95.5471762,62.7807697 C95.0101891,61.929196 94.6153846,60.7529514 94.6153846,59.1743072 L94.6153846,30 L100.150584,30 Z" id="Fill-8" fill="#FFFFFF" fill-rule="nonzero"></path>
                        <path d="M56.3050474,30 L56.3050474,59.0965787 L61.1538462,61.1883682 L58.866652,66.9230769 L54.066123,64.8491718 C52.9797223,64.368356 52.2530306,63.6206496 51.7009037,62.7807697 C51.1653075,61.929196 50.7692308,60.7529514 50.7692308,59.1743072 L50.7692308,30 L56.3050474,30 Z" id="Fill-10" fill="#FFFFFF" fill-rule="nonzero"></path>
                        <path d="M124.849105,43.7240113 C129.299135,45.7665389 131.169989,50.8635979 129.03187,55.1140134 L134.652049,57.6923077 C138.282974,50.4793011 135.104184,41.8243547 127.550835,38.3557617 C121.814333,35.721245 115.203335,36.8450321 110.769231,40.7025519 L114.969998,45.1123745 C117.581716,42.8376812 121.472982,42.170288 124.849105,43.7240113" id="Fill-12" fill="#BCD752" fill-rule="nonzero"></path>
                        <path d="M117.454617,58.9678634 C113.01248,56.9254958 111.137588,51.8268519 113.272805,47.5833834 L113.272805,47.5807379 L107.653668,45 C104.027123,52.2144256 107.202254,60.8706781 114.752363,64.3376765 C120.494047,66.9719868 127.100479,65.8449809 131.538462,61.9877632 L127.336571,57.5842387 C124.722246,59.8528012 120.833992,60.5188194 117.454617,58.9678634" id="Fill-14" fill="#FFFFFF" fill-rule="nonzero"></path>
                        <path d="M44.8454259,60.2414483 L44.8454259,51.9117985 L44.8454259,51.8728365 C44.8454259,45.1932585 40.475722,39.5458298 34.4442612,37.6278093 C33.0186308,37.1753041 31.5008701,36.924444 29.9244191,36.9230769 C28.3786781,36.924444 26.8875328,37.1616333 25.4857881,37.5956828 C23.1511391,38.3243392 21.0601235,39.6121334 19.3731162,41.3025342 C16.6713111,44.0073122 15.0027298,47.7456065 15,51.8728365 C15.0027298,60.1279802 21.6825146,66.8164443 29.9244191,66.8191785 L29.9312435,66.8191785 C32.3150286,66.8191785 34.5787031,66.250471 36.5844129,65.2470305 L34.1685529,59.6084878 C32.9087569,60.3022836 31.4735723,60.7028395 29.9244191,60.7028395 C25.0558469,60.6939535 21.1160841,56.7458115 21.1038001,51.8728365 L21.1072123,51.8728365 C21.1106246,50.3731441 21.4873349,48.9650464 22.1424834,47.7305685 C23.3258454,45.5104223 25.4270977,43.861034 27.9364529,43.2772887 C28.57727,43.1269093 29.2392429,43.0394159 29.9230542,43.0394159 C31.2272091,43.0428336 32.4603897,43.3340227 33.5707299,43.8418949 C36.6158055,45.2363217 38.7348014,48.3006431 38.7409434,51.8728365 L38.7443556,51.8728365 C38.7443556,52.1250638 38.7443556,60.1717269 38.7470854,60.1717269 C38.7470854,61.73909 39.1558707,62.9099985 39.7066049,63.7548571 C40.2744003,64.5880955 41.0250913,65.3331569 42.1463506,65.8116367 L44.9443806,66.9230769 L47.3076923,61.225066 L44.8454259,60.2414483 Z" id="Fill-16" fill="#FFFFFF" fill-rule="nonzero"></path>
                    </g>
                </g>
            </g>
        </g>
    </g>
</svg>