<svg width="100%" height="100%" viewBox="0 0 169 149">
  <g id="amex-logo" stroke="none" stroke-width="1" fill="none" fill-rule="evenodd">
      <g id="SVG" transform="translate(-708.000000, -2266.000000)">
          <g transform="translate(708.000000, 2266.000000)">
              <g id="Group-3" transform="translate(19.000000, 0.000000)">
                  <g id="Fill-1-Clipped">
                      <mask id="mask-2" fill="white">
                          <polygon id="path-1" points="0.926838421 0.0484118684 149.420154 0.0484118684 149.420154 148.270898 0.926838421 148.270898"></polygon>
                      </mask>
                      <g id="path-1"></g>
                      <path d="M148.545038,0.0475889542 L0.926838421,0.0475889542 L0.926838421,148.270898 L148.545038,148.270898 L148.545038,99.3527623 C149.133109,98.5092752 149.420976,97.4147993 149.420976,96.0899074 C149.420976,94.5798598 149.133109,93.637623 148.545038,92.85174 L148.545038,0.0475889542" id="Fill-1" fill="#006DAE" fill-rule="nonzero" mask="url(#mask-2)"></path>
                  </g>
              </g>
              <path d="M20,72.9882852 L27.1576763,72.9882852 L28.7676349,69.321562 L32.3817427,69.321562 L33.9834025,72.9882852 L48.0622407,72.9882852 L48.0622407,70.1845501 L49.3195021,73 L56.6182573,73 L57.8713693,70.1494058 L57.8713693,72.9882852 L92.8506224,72.9882852 L92.8340249,66.9786078 L93.5103734,66.9786078 C93.9917012,66.9903226 94.1244813,67.0449915 94.1244813,67.7713073 L94.1244813,72.9882852 L112.207469,72.9882852 L112.207469,71.5864177 C113.6639,72.3244482 115.946058,72.9882852 118.912863,72.9882852 L126.53527,72.9882852 L128.161826,69.321562 L131.780083,69.321562 L133.373444,72.9882852 L148.033195,72.9882852 L148.033195,69.5089983 L150.257261,72.9882852 L162,72.9882852 L162,50 L150.365145,50 L150.365145,52.7217317 L148.746888,50 L136.813278,50 L136.813278,52.7217317 L135.319502,50 L119.19917,50 C116.502075,50 114.120332,50.3475382 112.207469,51.3393888 L112.207469,50 L101.091286,50 L101.091286,51.3393888 C99.8672199,50.3202037 98.2033195,50 96.3609959,50 L55.7219917,50 L52.9834025,55.9393888 L50.1991701,50 L37.3983402,50 L37.3983402,52.7217317 L35.9834025,50 L25.0705394,50 L20,60.9181664 L20,72.9882852 Z M158.26971,69.7432937 L152.340249,69.7432937 L144.40249,57.3842105 L144.414938,69.7432937 L135.887967,69.7432937 L134.261411,66.0726655 L125.547718,66.0726655 L123.983402,69.7432937 L119.074689,69.7432937 C117.037344,69.7432937 114.460581,69.321562 113.016598,67.9275042 C111.526971,66.5178268 110.767635,64.6356537 110.767635,61.6288625 C110.767635,59.1804754 111.232365,56.9546689 113.024896,55.1935484 C114.390041,53.8697793 116.502075,53.2606112 119.390041,53.2606112 L123.431535,53.2606112 L123.431535,56.798472 L119.477178,56.798472 C117.950207,56.798472 117.074689,57.0093379 116.236515,57.7747029 C115.53527,58.4697793 115.041494,59.7779287 115.041494,61.5156197 C115.041494,63.2806452 115.406639,64.5419355 116.20332,65.3814941 C116.829876,66.0258065 118.012448,66.2327674 119.112033,66.2327674 L120.991701,66.2327674 L126.892116,53.2606112 L133.161826,53.2606112 L140.248963,68.8529711 L140.248963,53.2606112 L146.634855,53.2606112 L153.991701,64.7410866 L153.991701,53.2606112 L158.26971,53.2606112 L158.26971,69.7432937 Z M104.452282,69.7432937 L104.452282,53.2606112 L108.721992,53.2606112 L108.721992,69.7432937 L104.452282,69.7432937 Z M102.024896,57.7122241 C102.024896,60.324618 100.157676,61.6952462 99.0788382,62.1013582 C99.9917012,62.4332767 100.771784,63.0033956 101.136929,63.495416 C101.726141,64.2998302 101.842324,65.0495756 101.842324,66.5022071 L101.842324,69.7432937 L97.6224066,69.7432937 L97.6058091,67.6697793 C97.6058091,66.6896435 97.7095436,65.2604414 96.93361,64.4716469 C96.3195021,63.8820034 95.3941909,63.7609508 93.8879668,63.7609508 L89.3858921,63.7609508 L89.3858921,69.7432937 L85.2033195,69.7432937 L85.2033195,53.2606112 L94.8423237,53.2606112 C96.9626556,53.2606112 98.5518672,53.3269949 99.9045643,54.0611205 C101.236515,54.7913413 102.024896,55.8651952 102.024896,57.7122241 Z M82.3029046,69.7432937 L68.3195021,69.7432937 L68.3195021,53.2606112 L82.3029046,53.2606112 L82.3029046,56.7047538 L72.5103734,56.7047538 L72.5103734,59.6646859 L82.06639,59.6646859 L82.06639,63.0502547 L72.5103734,63.0385399 L72.5103734,66.3342954 L82.3029046,66.3342954 L82.3029046,69.7432937 Z M65.2033195,69.7432937 L60.9128631,69.7432937 L60.8921162,56.849236 L54.8257261,69.7432937 L51.153527,69.7432937 L45.0539419,56.8258065 L45.0539419,69.7432937 L36.5394191,69.7432937 L34.9419087,66.0726655 L26.219917,66.0726655 L24.6016598,69.7432937 L20.0539419,69.7432937 L27.5352697,53.2606112 L33.7634855,53.2606112 L40.879668,68.8724958 L40.879668,53.2606112 L47.7261411,53.2606112 L53.1950207,64.4482173 L58.2323651,53.2606112 L65.2033195,53.2606112 L65.2033195,69.7432937 Z M132.821577,62.6363328 L129.921162,56.0721562 L127.053942,62.6363328 L132.821577,62.6363328 Z M96.5435685,60.0317487 C95.9751037,60.3402377 95.2946058,60.3714771 94.473029,60.3714771 L89.3858921,60.3714771 L89.3858921,56.7047538 L94.5352697,56.7047538 C95.2780083,56.7047538 96.0373444,56.7281834 96.5352697,56.9937182 C97.0746888,57.2397284 97.406639,57.7512733 97.406639,58.4502547 C97.406639,59.1726655 97.0871369,59.7466893 96.5435685,60.0317487 Z M33.4273859,62.6363328 L30.5643154,56.0721562 L27.7136929,62.6363328 L33.4273859,62.6363328 Z" id="Fill-4" fill="#FFFFFF" fill-rule="nonzero"></path>
              <path d="M99.5159776,90.7098744 C99.5159776,95.2755344 95.964359,96.2276892 92.3639209,96.2276892 L87.2419417,96.2276892 L87.2419417,101.753308 L79.2762266,101.753308 L74.21934,96.3057346 L68.9712438,101.753308 L52.7184186,101.753308 L52.7184186,85.2701052 L69.2275462,85.2701052 L74.2722278,90.6669494 L79.491846,85.2701052 L92.6039501,85.2701052 C95.8626517,85.2701052 99.5159776,86.1442145 99.5159776,90.7098744 Z M66.8842102,98.3115032 L56.7989151,98.3115032 L56.7989151,95.0335935 L65.8101812,95.0335935 L65.8101812,91.6776383 L56.7989151,91.6776383 L56.7989151,88.6845945 L67.0835565,88.6845945 L71.5749505,93.4843909 L66.8842102,98.3115032 Z M83.1573768,100.254835 L76.8677979,93.5468273 L83.1573768,87.0495419 L83.1573768,100.254835 Z M92.5632672,92.8756362 L87.2419417,92.8756362 L87.2419417,88.6845945 L92.6039501,88.6845945 C94.0888765,88.6845945 95.114086,89.262131 95.114086,90.7098744 C95.114086,92.130302 94.1336277,92.8756362 92.5632672,92.8756362 Z M120.243924,85.2701052 L133.954067,85.2701052 L133.954067,88.6845945 L124.340693,88.6845945 L124.340693,91.6776383 L133.709969,91.6776383 L133.709969,95.0335935 L124.340693,95.0335935 L124.340693,98.3115032 L133.954067,98.3310146 L133.954067,101.753308 L120.243924,101.753308 L120.243924,85.2701052 Z M115.052783,94.0892433 C115.972217,94.4092297 116.720783,94.9945707 117.06252,95.4823549 C117.648354,96.2901256 117.737856,97.0354598 117.745993,98.4910078 L117.745993,101.753308 L113.63295,101.753308 L113.63295,99.6890058 C113.63295,98.6978283 113.72652,97.2344757 112.969818,96.4735324 C112.367711,95.8647777 111.460482,95.7321004 109.959282,95.7321004 L105.565527,95.7321004 L105.565527,101.753308 L101.456553,101.753308 L101.456553,85.2701052 L110.923467,85.2701052 C113.002364,85.2701052 114.519837,85.3598575 115.866442,86.0622667 C117.15609,86.7997964 117.961612,87.8456057 117.961612,89.718697 C117.961612,92.3410248 116.143086,93.6834069 115.052783,94.0892433 Z M112.579262,92.0522565 C112.038179,92.3566339 111.350638,92.3878521 110.561389,92.3878521 L105.565527,92.3878521 L105.565527,88.6845945 L110.622414,88.6845945 C111.350638,88.6845945 112.095135,88.7002036 112.579262,88.9811673 C113.112208,89.2543264 113.429535,89.7577197 113.429535,90.4640312 C113.429535,91.1625382 113.112208,91.7400747 112.579262,92.0522565 Z M149.608853,93.0590431 C150.422511,93.8590092 150.841545,94.8579912 150.841545,96.5476756 C150.841545,100.094842 148.534824,101.753308 144.397371,101.753308 L136.395042,101.753308 L136.395042,98.2178487 L144.364825,98.2178487 C145.154074,98.2178487 145.699225,98.1124873 146.049098,97.8003054 C146.325742,97.5622667 146.533224,97.195453 146.533224,96.738887 C146.533224,96.2589074 146.317605,95.8647777 146.024688,95.6501527 C145.707361,95.3847981 145.284259,95.283339 144.564171,95.2755344 C140.73184,95.154564 135.919051,95.3847981 135.919051,90.1713607 C135.919051,87.7909739 137.489412,85.2701052 141.789596,85.2701052 L150.01975,85.2701052 L150.01975,88.7821513 L142.489342,88.7821513 C141.740777,88.7821513 141.25665,88.8133695 140.837616,89.0787241 C140.398241,89.3401765 140.231441,89.7499152 140.231441,90.2689175 C140.231441,90.8854768 140.61386,91.3069223 141.130533,91.4903291 C141.557704,91.6347133 142.013352,91.6776383 142.713099,91.6854428 L144.934386,91.7400747 C147.167878,91.7947065 148.685351,92.1654225 149.608853,93.0590431 Z M166,99.6421785 C164.986995,101.046997 163.04642,101.753308 160.418304,101.753308 L152.489203,101.753308 L152.489203,98.2178487 L160.389826,98.2178487 C161.162801,98.2178487 161.716089,98.1124873 162.049689,97.8003054 C162.322264,97.5622667 162.537884,97.195453 162.537884,96.738887 C162.537884,96.2589074 162.322264,95.8647777 162.037484,95.6501527 C161.732362,95.3847981 161.305191,95.283339 160.59324,95.2755344 C156.7365,95.154564 151.935916,95.3847981 151.935916,90.1713607 C151.935916,87.7909739 153.510345,85.2701052 157.814597,85.2701052 L166,85.2701052 L166,82 L158.400431,82 C156.09371,82 154.437915,82.5229046 153.254042,83.3423821 L153.254042,82 L142.013352,82 C140.231441,82 138.119997,82.4331524 137.111061,83.3423821 L137.119197,82 L117.054383,82 L117.054383,83.3423821 C115.455544,82.2497455 112.770472,82 111.509301,82 L98.2873535,82 L98.2873535,83.3423821 C97.0180465,82.1717 94.2190619,82 92.5022428,82 L77.6936611,82 L74.3007059,85.5276552 L71.1274384,82 L49,82 L49,104.988293 L70.7124726,104.988293 L74.2030669,101.417713 L77.5024514,104.988293 L90.8708578,105 L90.8708578,99.5836444 L92.1930526,99.5836444 C93.9627595,99.607058 96.061998,99.5524262 97.9049341,98.7836783 L97.9049341,104.988293 L108.942209,104.988293 L108.942209,98.9944011 L109.475156,98.9944011 C110.158629,98.9944011 110.22779,99.0334238 110.22779,99.6733967 L110.22779,104.988293 L143.758649,104.988293 C145.878229,104.988293 148.099517,104.461486 149.336277,103.517136 L149.336277,104.988293 L159.970792,104.988293 C162.188011,104.988293 164.348274,104.695623 166,103.934679 L166,99.6421785 Z M166,88.7821513 L158.506207,88.7821513 C157.753573,88.7821513 157.253173,88.8133695 156.850412,89.0787241 C156.419173,89.3401765 156.244237,89.7499152 156.244237,90.2689175 C156.244237,90.8854768 156.610383,91.3069223 157.155534,91.4903291 C157.574568,91.6347133 158.042422,91.6776383 158.738099,91.6854428 L160.955318,91.7400747 C163.18881,91.7947065 164.694078,92.1654225 165.617581,93.0590431 C165.764039,93.1878181 165.877951,93.3400068 166,93.4765864 L166,88.7821513 Z" id="Fill-6" fill="#FFFFFF" fill-rule="nonzero"></path>
              <g id="Group-10" transform="translate(0.000000, 136.000000)">
                  <g id="Fill-8-Clipped">
                      <mask id="mask-4" fill="white">
                          <polygon id="path-3" points="0 0.254125 12.820875 0.254125 12.820875 13 0 13"></polygon>
                      </mask>
                      <g id="path-3"></g>
                      <path d="M9.198375,9.550375 L8.017125,9.550375 C7.867125,9.081625 7.844625,8.192875 7.844625,7.982875 C7.844625,7.544125 7.769625,7.101625 6.967125,7.101625 L5.230875,7.101625 L5.234625,9.550375 L4.188375,9.550375 L4.188375,3.572875 L6.967125,3.572875 C7.919625,3.572875 8.977125,3.917875 8.977125,5.245375 C8.977125,5.987875 8.658375,6.351625 8.332125,6.591625 C8.602125,6.745375 8.834625,7.000375 8.864625,7.675375 L8.909625,8.706625 C8.928375,9.002875 8.950875,9.066625 9.198375,9.205375 L9.198375,9.550375 Z M7.908375,5.324125 C7.908375,4.570375 7.394625,4.502875 7.015875,4.502875 L5.230875,4.502875 L5.230875,6.171625 L6.884625,6.171625 C7.435875,6.171625 7.908375,6.036625 7.908375,5.324125 Z M12.820875,6.625375 C12.820875,3.089125 9.952125,0.254125 6.412125,0.254125 C2.872125,0.254125 -0.000375,3.089125 -0.000375,6.625375 C-0.000375,10.165375 2.872125,13.000375 6.412125,13.000375 C9.952125,13.000375 12.820875,10.165375 12.820875,6.625375 Z M11.853375,6.625375 C11.853375,9.629125 9.543375,12.070375 6.412125,12.070375 C3.280875,12.070375 0.970875,9.629125 0.970875,6.625375 C0.970875,3.625375 3.273375,1.187875 6.412125,1.187875 C9.558375,1.187875 11.853375,3.625375 11.853375,6.625375 Z" id="Fill-8" fill="#006DAE" fill-rule="nonzero" mask="url(#mask-4)"></path>
                  </g>
              </g>
          </g>
      </g>
  </g>
</svg>
